<?xml version="1.0" encoding="utf-8"?>
<!-- Generator: Adobe Illustrator 23.0.0, SVG Export Plug-In . SVG Version: 6.00 Build 0)  -->
<svg version="1.1" id="Capa_1" xmlns="http://www.w3.org/2000/svg" xmlns:xlink="http://www.w3.org/1999/xlink" x="0px" y="0px"
	 viewBox="0 0 1920 647.6" style="enable-background:new 0 0 1920 647.6;" xml:space="preserve">
<style type="text/css">
	.st0{fill:#234165;}
	.st1{fill:#325074;}
</style>
<path class="st0" d="M0,0h1920v267.3C898.3,274.4,809.8,820.6,0,590.7V0z"/>
<path class="st1" d="M1913,183.9c0.7-2.6-0.9-5.3-3.5-6s-5.3,0.9-6,3.5c0,0.1,0,0.2-0.1,0.3l-152.4-9.6c-0.2-2.6-2.3-4.6-5-4.6
	c-2.8,0-5,2.2-5,5c0,0.8,0.2,1.5,0.5,2.2l-73.4,49.6c-0.6-0.7-1.5-1.3-2.5-1.5c-2-0.5-4.1,0.3-5.3,1.9l-64.6-34.9
	c0.1-0.2,0.1-0.3,0.2-0.5c0.7-2.6-0.9-5.3-3.5-6c-2.4-0.6-4.9,0.6-5.8,2.9L1449.2,41.5c0.4-0.5,0.8-1.2,0.9-1.9
	c0.7-2.6-0.9-5.3-3.5-6s-5.3,0.9-6,3.5c-0.3,1-0.2,2,0.1,2.9l-146.6,76c-0.6-0.9-1.6-1.7-2.8-2c-1.1-0.3-2.2-0.2-3.2,0.2L1253,53.9
	c0.8-0.6,1.5-1.6,1.8-2.7c0.7-2.6-0.9-5.3-3.5-6c-1.8-0.5-3.7,0.2-4.9,1.5L1194,10.4c0.2-0.3,0.3-0.7,0.4-1c0.7-2.6-0.9-5.3-3.5-6
	s-5.3,0.9-6,3.5c-0.1,0.2-0.1,0.4-0.1,0.6l-114.5-0.1c-0.3-1.9-1.6-3.6-3.7-4.2c-2.6-0.7-5.3,0.9-6,3.5c-0.4,1.7,0.1,3.5,1.2,4.7
	l-41.2,51.1c-0.5-0.3-1-0.6-1.5-0.7c-2.4-0.6-4.9,0.7-5.8,2.9l-64.8-23.1c0-0.1,0.1-0.2,0.1-0.3c0.7-2.6-0.9-5.3-3.5-6
	c-1.7-0.5-3.5,0.1-4.7,1.2c-1,0.8-1.5,1.9-1.7,3.1l-84.1-0.1c-0.1-0.5-0.2-1-0.4-1.5c-1.2-2.5-4.1-3.6-6.6-2.4
	c-1.8,0.9-2.9,2.7-2.9,4.6l-13.8,3.4l-76.6,18.7c-1.2-2.4-4.1-3.4-6.5-2.3c-2.5,1.2-3.5,4.1-2.4,6.6c0.3,0.7,0.8,1.3,1.4,1.8
	l-41.9,67.1c-1.3-0.6-2.7-0.6-4.1,0.1l0,0L679,101.7c1.1-0.9,1.8-2.3,1.8-3.8c0-2.8-2.2-5-5-5s-5,2.2-5,5c0,0.8,0.2,1.6,0.5,2.2
	L583,156.4c-1.4-1.7-3.8-2.3-5.9-1.3c-1.1,0.5-1.9,1.4-2.4,2.4l-59.9-19.2c0.2-1,0.1-2-0.4-3c-1.2-2.5-4.1-3.5-6.6-2.4
	c-1.2,0.5-2,1.5-2.5,2.6l-98.9-27.3c0.1-0.9,0-1.9-0.4-2.8c-1.2-2.5-4.1-3.6-6.6-2.4s-3.5,4.1-2.4,6.6c0.5,1,1.2,1.7,2.1,2.2
	l-25.3,63.1c-1.1-0.3-2.3-0.2-3.4,0.3c-2.2,1-3.3,3.4-2.7,5.7L216,239.2l0.2,0.6c-0.7-1.6-2.2-2.6-3.7-2.8l1.3-63.9
	c0.5-0.1,1.1-0.2,1.6-0.4c2.5-1.2,3.5-4.1,2.4-6.6c-1.2-2.5-4.1-3.6-6.6-2.4c-1.5,0.7-2.4,2-2.7,3.5L70.7,155.8
	c0-0.6-0.2-1.2-0.5-1.7c-0.9-1.8-2.7-2.9-4.6-2.9l-7.6-58c0.2-0.1,0.4-0.1,0.6-0.2c2.5-1.2,3.5-4.1,2.4-6.6
	c-1.2-2.5-4.1-3.5-6.6-2.4c-1.3,0.6-2.2,1.8-2.6,3.1L0,81.5v1.3l51.6,5.6c0,0.8,0.1,1.5,0.5,2.3v0.1L1.9,125.3L0,124.4v1.4l0.6,0.3
	L0,126.6v1.5l2-1.4l59.1,27.9c-0.2,0.6-0.3,1.2-0.3,1.8L0,169.5v1.3l58.7-12.6L0.4,182.1c-0.1-0.2-0.3-0.4-0.4-0.6v7.4l24.1,21.3
	L1,240.7c-0.3-0.2-0.7-0.3-1-0.4v9.5c0.2,0,0.3-0.1,0.5-0.2l35.7,57.3c-1.2,0.9-1.9,2.3-2,3.8L0,313.5v1.3l34.3-2.9
	c0.1,0.4,0.2,0.7,0.4,1.1c0.3,0.6,0.7,1.2,1.2,1.6L0,366.6v2.3l36.9-53.6c0.7,0.4,1.5,0.6,2.3,0.5l5.5,51.2L1,372.1
	c-0.1-0.3-0.2-0.6-0.3-0.9c-0.2-0.4-0.4-0.7-0.6-1v7l46.3,36.6c-0.8,1.4-1,3.1-0.2,4.7c0.5,1.1,1.5,2,2.5,2.4l-23,80.4
	c-0.9-0.1-1.9,0-2.8,0.4c-2.5,1.2-3.5,4.1-2.4,6.6c1,2.1,3.2,3.2,5.4,2.8l18.7,59.8l0,0c-2.5,1.2-3.5,4.1-2.4,6.6
	c1.2,2.5,4.1,3.5,6.6,2.4c1.3-0.6,2.3-1.8,2.6-3.1l76.8,12.4c0,0.8,0.1,1.5,0.5,2.3c1.2,2.5,4.1,3.5,6.6,2.4
	c2.5-1.2,3.5-4.1,2.4-6.6c0-0.1-0.1-0.2-0.1-0.3l123.7-90.4c0.9,0.8,2,1.3,3.3,1.3c2.8,0,5-2.2,5-5c0-0.1,0-0.3,0-0.4l70.2-15.5
	c0.7,1.9,2.5,3.3,4.7,3.3c2.8,0,5-2.2,5-5c0-2-1.2-3.7-2.9-4.5l8.6-26.7c0.2,0,0.4,0.1,0.6,0.1c2,0,3.7-1.2,4.6-2.9l117,29.3
	c-0.3,0.6-0.5,1.4-0.5,2.1c0,2.8,2.2,5,5,5s5-2.2,5-5c0-1.1-0.4-2.2-1-3l94.5-61.9c1.4,0.9,3.2,1.1,4.8,0.4c2.5-1.2,3.6-4.1,2.4-6.6
	c-0.4-0.9-1.2-1.7-2-2.2l64.3-152.8c1.1,0.3,2.3,0.2,3.4-0.3c1-0.5,1.8-1.3,2.3-2.2l65.9,24.1c-0.2,1-0.1,2.2,0.3,3.2
	c1.2,2.5,4.1,3.5,6.6,2.4c1.7-0.8,2.8-2.5,2.8-4.3l63.6-5.6c0.1,0.4,0.2,0.7,0.4,1c1.2,2.5,4.1,3.6,6.6,2.4c1.6-0.8,2.6-2.3,2.8-3.9
	l88.6-3.3c0.4,2.4,2.5,4.2,5,4.2c2.8,0,5.1-2.3,5.1-5.1c0-2.6-2-4.8-4.6-5l-2.8-66.1c0.7,0,1.4-0.2,2-0.5c2.5-1.2,3.6-4.1,2.4-6.6
	c-0.8-1.6-2.3-2.6-3.9-2.8l-1-65.9c0.5-0.1,1.1-0.2,1.6-0.4c2.3-1.1,3.4-3.7,2.6-6L937.5,92c1.5,0.3,3.1-0.2,4.2-1.2l64.3,53.7
	c-0.3,0.4-0.5,0.9-0.6,1.4c-0.7,2.6,0.9,5.3,3.5,6c1.9,0.5,3.9-0.2,5.1-1.7l12.7,6.2l70.5,34.5c-0.6,2.6,1,5.2,3.6,5.9
	s5.3-0.9,6-3.5c0.2-0.8,0.2-1.5,0-2.3l74.8-24.6c0.6,1.2,1.7,2.2,3.2,2.6l0,0l-4.8,39.2c-2.5,0.3-4.4,2.4-4.4,5c0,2.8,2.2,5,5,5
	c2.1,0,4-1.4,4.7-3.3L1288,228c0,2.2,1.5,4.2,3.7,4.8c1.2,0.3,2.3,0.2,3.3-0.3l33.6,52.8c-0.8,0.6-1.3,1.5-1.6,2.5
	c-0.7,2.6,0.9,5.3,3.5,6c1.2,0.3,2.5,0.1,3.5-0.4l28,40.2c0.4-0.1,0.9-0.2,1.3-0.3l-28.2-40.6c0.7-0.6,1.2-1.5,1.5-2.4
	c0.1-0.5,0.2-1,0.2-1.5l45.7-8.5l5.9,46.8c0.3-0.1,0.7-0.2,1-0.2c0.1,0,0.2,0,0.3-0.1l-5.9-46.7l73.1-13.6c0.3,1,0.9,1.8,1.7,2.4
	l-27.3,48.2l0,0c0.6-0.1,1.1-0.2,1.7-0.4l26.7-47.2c0.2,0.1,0.4,0.2,0.6,0.2c0.3,0.1,0.5,0.1,0.8,0.1l1.3,40.6
	c0.3-0.1,0.6-0.1,0.9-0.2c0.1,0,0.3-0.1,0.4-0.1l-1.2-40.4c1.6-0.3,3-1.3,3.7-2.8l54,15.1c-0.3,1.3-0.1,2.5,0.5,3.6l-23.9,18.1
	c0.9-0.2,1.9-0.3,2.8-0.5l18.5-14l-13,13c0.6-0.1,1.1-0.2,1.7-0.3c0.2,0,0.3-0.1,0.5-0.1l14.7-14.7c0.5,0.4,1.1,0.7,1.8,0.9
	c1.5,0.4,3.1,0,4.3-0.9l8.5,9.7c0.2,0,0.4-0.1,0.6-0.1c0.3,0,0.6-0.1,0.8-0.1l-9.1-10.4c0.1-0.2,0.2-0.4,0.3-0.5l18.2,9.4
	c0.7-0.1,1.4-0.2,2.1-0.3l0,0l-19.9-10.2l0,0c0.2-0.9,0.2-1.9-0.1-2.8l79.2-31l10,34.3c0.4-0.1,0.9-0.1,1.3-0.2l-10.1-34.6
	l50.2-19.6c0.5,1,1.4,1.8,2.5,2.2l-12.6,48.5c0.4,0,0.8-0.1,1.1-0.1c0.1,0,0.1,0,0.2,0l12.5-48c0.9,0.1,1.8,0,2.6-0.4l27.2,44.2
	c0.5,0,0.9-0.1,1.4-0.1l-27.5-44.8c0.6-0.5,1.2-1.2,1.5-2l89.9,23.4c-0.1,1,0.1,2,0.5,2.8l-26.2,17.5c0.2,0,0.4,0,0.7,0
	c0.6,0,1.3-0.1,1.9-0.1l24.4-16.2c0.2,0.2,0.4,0.4,0.6,0.6l-8.8,14.5c0.4,0,0.8-0.1,1.3-0.1c0.1,0,0.2,0,0.3,0l8.4-13.8
	c0.2,0.1,0.5,0.2,0.8,0.3c0.7,0.2,1.4,0.2,2,0.1l3.6,12.5c0.4,0,0.9-0.1,1.3-0.1l-3.7-12.8c1.3-0.6,2.4-1.8,2.8-3.3
	c0.2-0.7,0.2-1.5,0.1-2.2l19.5-6.5l50.2-16.8c0.1,0.1,0.1,0.2,0.2,0.3l-51.4,40.3c0.7,0,1.5-0.1,2.2-0.1l49.9-39.2
	c0.5,0.5,1,0.8,1.6,1.1l-9,36.3c0.4,0,0.7,0,1.1,0c0.1,0,0.2,0,0.2,0l8.8-35.7l0.4-0.3c0.1,0,0.2,0,0.4,0l4.7,35.5
	c0.4,0,0.9,0,1.3,0l-4.7-35.6c0.7-0.2,1.3-0.5,1.9-1l38.9,35.9c0.6,0,1.2,0,1.9,0l-39.9-36.8c0.3-0.4,0.5-0.9,0.7-1.4l72.6,12.7
	v-1.3l-71.5-12.5l56.1-41.3c0.6,0.6,1.4,1.1,2.3,1.4c0.6,0.2,1.1,0.2,1.7,0.1l11.4,50.4V233l-10.1-44.9c0.4-0.1,0.7-0.3,1-0.5
	l9.1,10.4v-1.9l-8.1-9.3C1912.4,185.4,1912.8,184.7,1913,183.9z M1586.6,189.9l-84.1,48.5l-17.4-33c1-0.7,1.7-1.6,2-2.8
	c0.1-0.4,0.1-0.7,0.2-1.1l99.1-12.2C1586.4,189.4,1586.5,189.6,1586.6,189.9z M1586.2,187.9l-99.1,12.2c-0.4-1.7-1.7-3.2-3.6-3.6
	c-0.6-0.2-1.2-0.2-1.7-0.1l-11.6-51l116,42C1586.2,187.5,1586.2,187.7,1586.2,187.9z M1369.2,208.6l-71.7,16.9
	c-0.1-0.3-0.3-0.6-0.5-0.9l51.9-42.3l21.4,22.7c-0.4,0.5-0.8,1.2-1,1.9C1369.2,207.5,1369.2,208.1,1369.2,208.6z M1349.9,181.4
	l64.2-52.3c0.2,0.2,0.4,0.3,0.6,0.5l-23,43.7l-15.9,30.2c-0.2-0.1-0.3-0.1-0.5-0.1c-1.5-0.4-3-0.1-4.1,0.8L1349.9,181.4z
	 M1393.2,173.3l22.7-43.2c0.2,0.1,0.3,0.1,0.5,0.1c0.7,0.2,1.4,0.2,2.1,0.1l22.1,73l-61.4,3.8c-0.2-1.2-1-2.4-2-3.1L1393.2,173.3z
	 M1419.6,130c0.2-0.1,0.5-0.2,0.7-0.4l58.4,68.4c-0.5,0.6-0.9,1.2-1.1,2c-0.1,0.3-0.1,0.7-0.2,1l-35.7,2.2L1419.6,130z
	 M1421.2,128.8c0.3-0.3,0.5-0.7,0.7-1l46.9,17l11.8,51.8c-0.4,0.1-0.7,0.3-1.1,0.5L1421.2,128.8z M1448.3,42.3l135.8,142.9
	L1470,143.8L1447,43C1447.5,42.8,1447.9,42.6,1448.3,42.3z M1445.8,43.3l22.7,100.1l-46.2-16.7c0.5-2.3-0.7-4.6-2.7-5.5l24.8-77.8
	C1444.9,43.3,1445.4,43.3,1445.8,43.3z M1441.3,41.2c0.5,0.7,1.2,1.3,2,1.7l-24.8,77.8c-2.5-0.5-5,1.1-5.7,3.6
	c0,0.1-0.1,0.2-0.1,0.4l-117.7-6.2c0-0.5-0.1-0.9-0.3-1.3L1441.3,41.2z M1294.8,120.1c0-0.1,0.1-0.2,0.1-0.4l117.7,6.2
	c0.1,0.8,0.3,1.6,0.7,2.2l-64.3,52.4l-55.1-58.5C1294.3,121.4,1294.7,120.8,1294.8,120.1z M1248.7,54.7c1.1,0.3,2.2,0.2,3.2-0.2
	l35.1,60.4c-0.1,0.1-0.1,0.1-0.2,0.2l-48.2-43.6c0.3-0.5,0.6-1,0.7-1.6c0.4-1.7-0.1-3.4-1.2-4.6l9.2-11.1
	C1247.8,54.4,1248.2,54.6,1248.7,54.7z M1285.3,120.2l-26.9,11.6l-21.5-58.7c0.3-0.2,0.6-0.4,0.9-0.6L1286,116
	c-0.3,0.5-0.6,1-0.7,1.6C1285,118.5,1285.1,119.4,1285.3,120.2z M1257.2,132.3l-66.9,28.8c-0.4-0.6-0.9-1.2-1.5-1.6l29-56.7
	l15.1-29.5c0.1,0,0.3,0.1,0.4,0.1c0.8,0.2,1.6,0.2,2.3,0L1257.2,132.3z M1246.4,53.3l-9.2,11.1c-0.4-0.3-0.9-0.5-1.4-0.6
	c-1.3-0.3-2.6-0.1-3.7,0.5l-9-12.1l21.9-1.4C1245.3,51.8,1245.8,52.7,1246.4,53.3z M1088.8,43.4l94.5-32.4l-80.9,45.7
	c-0.6-0.9-1.6-1.5-2.7-1.8c-1.2-0.3-2.3-0.2-3.4,0.3L1088.8,43.4z M1095.3,55.9c-0.8,0.6-1.3,1.5-1.6,2.5c-0.1,0.4-0.1,0.7-0.2,1.1
	l-70.6,6.6l64.7-22.2L1095.3,55.9z M1103.2,60.9c0-0.1,0-0.2,0.1-0.3l43.9,2.9l82.4,5.4c0.1,0.9,0.4,1.8,0.9,2.5l-68.3,62.9
	L1102.1,63C1102.6,62.4,1103,61.7,1103.2,60.9z M1229.8,67.4c0,0.1,0,0.2-0.1,0.3l-121.5-8l113.5-7.3l9.5,12.7
	C1230.5,65.7,1230,66.5,1229.8,67.4z M1193.3,11.5l52.3,36.2c-0.2,0.3-0.3,0.7-0.4,1s-0.1,0.6-0.1,0.9l-22.7,1.5l-29.3-39.4
	C1193.1,11.6,1193.2,11.6,1193.3,11.5z M1185.7,11.1c0.6,0.9,1.6,1.5,2.7,1.8c1.3,0.3,2.6,0.1,3.7-0.5l28.8,38.7l-117.5,7.5
	c-0.1-0.3-0.2-0.6-0.3-0.9L1185.7,11.1z M1070.1,9.3c0.1-0.2,0.1-0.4,0.1-0.6l114.5,0.1c0,0.1,0,0.2,0.1,0.4l-96.7,33.2l-19.6-30.6
	C1069.3,11.2,1069.8,10.3,1070.1,9.3z M1062.7,12.2c0.4,0.2,0.9,0.4,1.3,0.6c1.2,0.3,2.3,0.2,3.4-0.3l19.4,30.3l-64.4,22.1
	c-0.2-0.5-0.5-1.1-0.9-1.5L1062.7,12.2z M1022.6,67.9c0-0.2,0.1-0.3,0.1-0.5l71-6.6c0.2,0.7,0.5,1.3,0.9,1.9l-47.8,46.7l-26-38.8
	C1021.6,70,1022.3,69,1022.6,67.9z M947.4,43.5c0.2-0.2,0.3-0.4,0.5-0.6l65,23.1l0.2-0.6c-0.2,0.6-0.2,1.2-0.1,1.8l-39.6,9.9
	c-1.3-2.1-4-3-6.3-1.9c-0.2,0.1-0.3,0.1-0.4,0.2l-6.8-10.7L947,44C947,43.9,947.2,43.7,947.4,43.5z M944.1,45.3
	c0.5-0.1,1-0.2,1.4-0.4l13.4,21l6.5,10.4c-0.3,0.4-0.6,0.8-0.8,1.2L941,69.7L944.1,45.3z M941.1,44.8c0.6,0.3,1.2,0.5,1.8,0.6l-3,24
	L926.4,65L941.1,44.8z M854.4,40.9l84.1,0.1c0.1,0.5,0.2,1,0.4,1.5c0.3,0.6,0.6,1.1,1.1,1.5l-15,20.5l-70.7-23.3
	C854.4,41.1,854.4,41,854.4,40.9z M849.9,45.2c0.6,0,1.2-0.2,1.7-0.5c0.2-0.1,0.4-0.2,0.6-0.3l39.5,58.7c-0.5,0.4-0.8,0.9-1.1,1.4
	l-45.3-13.3L849.9,45.2z M890.4,109c0.1,0.2,0.2,0.3,0.2,0.5l-50.5,50.7c-0.6-0.4-1.2-0.7-1.9-0.9l6.8-66.8l45,13.2
	C889.8,106.7,889.9,107.9,890.4,109z M841.6,162c-0.2-0.3-0.3-0.6-0.6-0.9l50.3-50.4l-35.7,58.7l-13.7-4.3
	C842.1,164,842,162.9,841.6,162z M841.6,166.2l13.4,4.2l-6.8,11.1l-8.5-13.3C840.5,167.7,841.2,167,841.6,166.2z M856.2,170.8
	l34.7,11c-0.2,1-0.1,2,0.4,3c0.1,0.2,0.2,0.4,0.3,0.5l-26.8,22.3l-15.9-24.9L856.2,170.8z M891.3,180.6l-34.4-10.9l35.5-58.5
	c0.5,0.3,1.1,0.5,1.6,0.6l1.1,66c-0.5,0.1-0.9,0.2-1.4,0.4C892.6,178.7,891.8,179.6,891.3,180.6z M775.8,58.4l69-16.8
	c0.1,0.3,0.2,0.5,0.3,0.7c0.7,1.5,2.1,2.5,3.6,2.8L844,90.8l-89.2-26.2c0-0.3,0-0.7-0.1-1.1L775.8,58.4z M754.5,65.9l89.3,26.2
	l-6.9,67c-0.7,0-1.3,0.2-2,0.5c-0.2,0.1-0.4,0.2-0.6,0.4l-80.4-92.6C754.2,66.9,754.4,66.4,754.5,65.9z M750.1,69.6
	c0.6,0,1.2-0.2,1.7-0.4c0.5-0.2,0.9-0.5,1.2-0.8l80.3,92.5c-0.5,0.5-0.8,1.1-1,1.8L740,146L750.1,69.6z M730.7,242.4
	c0-0.1-0.1-0.2-0.1-0.3l98.9-71.8l-82.9,78.5l-15.5-3.7C731.2,244.2,731.1,243.3,730.7,242.4z M797,192.4l-67.1,48.7
	c-0.6-0.7-1.4-1.1-2.3-1.4l12.3-92.5l92.3,16.5c0,0.8,0.1,1.6,0.5,2.4c0,0.1,0.1,0.2,0.1,0.3L797,192.4z M747.8,69.2
	c0.3,0.1,0.7,0.3,1.1,0.3l-10.2,76.3l-31-5.5c0-0.8-0.1-1.5-0.5-2.3c-0.3-0.7-0.8-1.3-1.4-1.8L747.8,69.2z M701,144.8
	c0.7,0.3,1.4,0.4,2.2,0.3l14,62.4l7.3,32.5c-0.1,0.1-0.3,0.1-0.4,0.2c-0.7,0.4-1.4,0.9-1.8,1.5L667.9,210L701,144.8z M666.8,209.3
	l-82.9-48.1c0.2-0.6,0.3-1.2,0.3-1.9L698,141.4c0.1,0.3,0.2,0.6,0.3,0.8c0.4,0.8,0.9,1.5,1.6,1.9L666.8,209.3z M671.8,101.3
	c0.9,1.1,2.3,1.7,3.8,1.7c0.8,0,1.5-0.2,2.2-0.5l21.8,33.9c-1.1,1-1.8,2.4-1.8,3.8L584,158.1c-0.1-0.2-0.1-0.4-0.2-0.6L671.8,101.3z
	 M581.3,164c0.3-0.2,0.6-0.3,0.9-0.6l65.2,74.7c-0.5,0.6-0.9,1.3-1.1,2.1l-80.1-9.8l12.9-66C579.9,164.5,580.6,164.4,581.3,164z
	 M369.4,381.8l-72.3,14.5c-0.1-0.2-0.1-0.3-0.2-0.5c-0.4-0.8-0.9-1.4-1.6-1.9l26-47.3l48.5,32.6C369.5,380.1,369.3,381,369.4,381.8z
	 M55.1,414.2c-0.3-0.7-0.8-1.3-1.4-1.8l25.5-42l-21.1,52l-3.5-3.2C55.6,417.8,55.9,415.9,55.1,414.2z M52.6,411.8
	c-0.6-0.3-1.2-0.4-1.9-0.4l-4.6-43.2l31.9-3.7c0.1,0.3,0.2,0.6,0.3,0.9c0.3,0.7,0.8,1.3,1.4,1.8L52.6,411.8z M81.5,368.1
	c0.9,0.2,1.9,0.2,2.8-0.1l68,140.4l-0.1,0.5c-0.1,0.1-0.2,0.1-0.3,0.2l-92.8-85.8L81.5,368.1z M287.7,399.5l-84.4,39.7
	c-0.5-0.8-1.3-1.5-2.2-1.9l18.8-63.2l67.7,22.9C287.4,397.8,287.4,398.6,287.7,399.5z M183.5,359.7c-0.5,0.7-0.9,1.5-1,2.4
	l-94.8,0.5c-0.1-0.5-0.2-1-0.4-1.4c0-0.1-0.1-0.2-0.2-0.3l56.1-41.3L183.5,359.7z M109.9,284.6c0.4-0.5,0.6-1,0.8-1.6l61.2,10.7
	c0,0.8,0.1,1.6,0.5,2.3c0,0.1,0.1,0.2,0.2,0.3l-29.2,21.6L109.9,284.6z M87.7,363.9l94.8-0.5c0.1,0.5,0.2,1,0.4,1.4
	c0.6,1.3,1.6,2.1,2.8,2.6l-12.1,56.4l-86.5-58.3C87.4,365,87.6,364.5,87.7,363.9z M187,367.7c0.2,0,0.3,0,0.5,0l10.3,69.3
	c-0.3,0.1-0.5,0.2-0.8,0.3c-0.6,0.3-1.2,0.7-1.6,1.2l-20.6-13.9L187,367.7z M188.8,367.5c0.3-0.1,0.5-0.2,0.8-0.3
	c1.2-0.5,2-1.5,2.5-2.6l26.7,9L200,436.8c-0.3,0-0.6-0.1-0.9-0.1L188.8,367.5z M219.1,372.5l-26.7-9c0.1-0.9,0-1.9-0.4-2.8
	c-0.2-0.5-0.5-0.9-0.9-1.3l49.7-61.8c0.2,0.1,0.4,0.2,0.6,0.3L219.1,372.5z M189.8,358.4c-0.2-0.1-0.5-0.2-0.8-0.3l12.7-64.1h36.6
	c0.1,0.5,0.2,1,0.4,1.5s0.5,0.9,0.9,1.3L189.8,358.4z M200.7,292.7h-19c-0.1-0.3-0.2-0.6-0.3-0.9c-0.3-0.7-0.8-1.3-1.3-1.7l29.4-44
	c0.2,0.1,0.3,0.2,0.5,0.2L200.7,292.7z M181.8,294h18.6l-12.7,63.8c-0.3,0-0.7,0-1,0l-8.3-59.2c0.2-0.1,0.3-0.1,0.5-0.2
	C180.7,297.6,181.8,295.8,181.8,294z M185.5,358.2c-0.1,0-0.1,0-0.2,0.1c-0.3,0.2-0.6,0.4-0.9,0.6l-40.2-40l29.1-21.4
	c1,1.1,2.5,1.6,3.9,1.5L185.5,358.2z M172.1,292.4l-61.2-10.7c0-0.8-0.1-1.6-0.5-2.3c-0.2-0.4-0.4-0.7-0.7-1l29-30.7l34.5,42.7
	C172.7,291,172.3,291.7,172.1,292.4z M142.2,318.6l-55.9,41.2c-0.5-0.5-1-0.9-1.6-1.1l20.5-72.2c0.9,0.1,1.9,0,2.8-0.4
	c0.3-0.2,0.6-0.3,0.9-0.6L142.2,318.6z M85.5,367.4c0.4-0.2,0.7-0.5,1-0.9l86.9,58.6L155.6,508c-0.6-0.1-1.3,0-2,0.2L85.5,367.4z
	 M174.5,426l20.2,13.6c-0.7,1.3-0.7,2.9-0.1,4.3c0.3,0.7,0.8,1.3,1.4,1.7l-10.8,17.6l-27.9,45.2c-0.1-0.1-0.2-0.1-0.4-0.2L174.5,426
	z M197.1,446.3c1.3,0.6,2.8,0.6,4.2,0c2.1-1,3.2-3.3,2.8-5.4l17.8,15.4l-63.3,53c-0.1-0.1-0.1-0.1-0.2-0.2L197.1,446.3z
	 M204.8,439.8l83.5-39.2l-65.5,54.8L204.8,439.8z M288,395.8l-67.7-22.9l22.2-74.6c0.8,0.1,1.5,0.1,2.3-0.2l45,95.7
	C289,394.3,288.4,395,288,395.8z M245.9,297.5c0.4-0.3,0.8-0.6,1.1-0.9l73.3,49.3l-26.1,47.4c-1-0.4-2.2-0.5-3.3-0.1L245.9,297.5z
	 M248.2,292.9l61.5-13.7l18.1-4l32.5-7.2l0,0c0.4,0.9,1.1,1.6,1.8,2.1L321,344.8l-73.3-49.3C248.1,294.7,248.3,293.8,248.2,292.9z
	 M322,345.5l41.3-75c0.4,0.1,0.9,0.2,1.4,0.2l1.6,19.4l7,86.5c-0.4,0.1-0.7,0.2-1.1,0.4c-0.6,0.3-1.2,0.7-1.6,1.2L322,345.5z
	 M367.6,290.9l-1.6-20.3c0.3-0.1,0.6-0.2,0.9-0.3c0.9-0.4,1.6-1,2-1.8l40.3,16.6l-33.8,91.5c-0.3-0.1-0.6-0.1-0.9-0.1L367.6,290.9z
	 M451.9,305.8c0.5-0.3,1-0.6,1.4-1l41.7,31.9L455.6,351l-4.7-44.8C451.3,306.1,451.6,306,451.9,305.8z M448.7,296.5l-19.4-54.3
	c0.3-0.4,0.5-0.9,0.7-1.3l48.7,32.1l-25.9,24.4C451.7,296.5,450.2,296.2,448.7,296.5z M454.1,303.8c0.2-0.3,0.4-0.7,0.5-1.1l89,15.3
	c0,0.4,0,0.8,0.1,1.3l-47.2,17L454.1,303.8z M454.8,301.5c0-0.7-0.1-1.5-0.5-2.2c-0.2-0.3-0.3-0.6-0.5-0.9l26.1-24.6L544,316
	c-0.1,0.2-0.2,0.5-0.3,0.7L454.8,301.5z M479.7,272.1l-49.4-32.5c0-0.3,0-0.6,0-1l93.8-10.8c0.1,0.3,0.2,0.6,0.3,0.9
	c0.1,0.3,0.3,0.6,0.5,0.8L479.7,272.1z M524,226.5l-62.4,7.2l-31.6,3.7c0-0.1,0-0.1-0.1-0.2c-0.2-0.5-0.5-0.9-0.9-1.3l47.6-57.4
	l48.2,45.1C524.3,224.5,524,225.5,524,226.5z M447.5,296.9c-0.9,0.4-1.5,1.1-2,1.9l-34.6-14.3l14.9-40.3c0.6,0,1.2-0.2,1.7-0.5
	c0.3-0.1,0.6-0.3,0.9-0.5L447.5,296.9z M409.7,284l-40.2-16.6c0.3-0.8,0.3-1.7,0.1-2.6l51.4-23.1c0.7,1.3,2,2.1,3.3,2.4L409.7,284z
	 M420.6,240.6l-51.3,23c-0.6-1.2-1.6-2-2.7-2.4l16.1-69.2l39,44.1C420.6,237.3,420.2,239,420.6,240.6z M410.5,285.7L445,300
	c-0.3,1.1-0.2,2.3,0.3,3.5c0.2,0.3,0.4,0.7,0.6,1l-68.6,73.1c-0.2-0.1-0.4-0.3-0.6-0.4L410.5,285.7z M446.8,305.3
	c0.8,0.6,1.8,1,2.8,1l4.7,45.2l-75.8,27.4c-0.1-0.2-0.2-0.3-0.3-0.5L446.8,305.3z M454.5,352.8l3.3,31.7c-1.9,0.1-3.5,1.3-4.3,3
	l-71.9-8.4L454.5,352.8z M455.8,352.3l40.5-14.6l33.5,25.6L518.9,391c-0.4-0.1-0.7-0.1-1.1-0.1c-2.3,0-4.1,1.5-4.8,3.5l-49.7-5.8
	c-0.4-2.1-2-3.7-4-4.1L455.8,352.3z M530.8,364.2l47.9,36.7c-0.2,0.4-0.4,0.8-0.5,1.3l-55.5-6.5c-0.1-1.8-1.2-3.3-2.7-4.1
	L530.8,364.2z M530.2,362.1l-32.5-24.9l46.4-16.7c0.4,0.8,1,1.5,1.8,1.9L530.2,362.1z M544.7,314.9l-63.9-42.1l44.9-42.4
	c1,0.8,2.3,1.2,3.5,1.1l7.3,34.1l10.2,47.9c-0.2,0.1-0.3,0.1-0.5,0.2C545.7,314,545.2,314.4,544.7,314.9z M537.7,264.7l-7.2-33.5
	c0.2-0.1,0.3-0.1,0.5-0.2c1.4-0.7,2.3-1.9,2.7-3.3l31,3.8l-16,81.7c-0.2,0-0.5,0-0.7,0L537.7,264.7z M566,231.7l80.2,9.8
	c0,0.7,0.1,1.4,0.5,2.1c0.1,0.1,0.1,0.2,0.2,0.3l-94.8,70.8c-0.6-0.6-1.2-1-2-1.2L566,231.7z M577.9,164.3l-12.9,66l-31.1-3.8
	c0-0.7-0.1-1.4-0.5-2.1c-0.3-0.5-0.6-1-1-1.4l44.5-59.1C577.2,164.1,577.6,164.2,577.9,164.3z M512.1,141.9c1.1-0.5,1.9-1.4,2.4-2.4
	l59.9,19.2c-0.2,1-0.1,2,0.4,3c0.3,0.6,0.7,1.1,1.1,1.5l-44.5,59c-0.9-0.5-1.9-0.7-2.9-0.6l-16.9-79.5
	C511.8,142,511.9,141.9,512.1,141.9z M507.3,141.6c0.9,0.6,2,0.8,3,0.8l16.9,79.5c-0.2,0.1-0.3,0.1-0.5,0.2c-0.4,0.2-0.7,0.4-1,0.7
	l-48.3-45.2L507.3,141.6z M406.1,109.4l98.9,27.3c-0.1,0.9,0,1.9,0.4,2.8c0.2,0.5,0.5,0.9,0.9,1.3l-29.8,35.9l-70.9-66.3
	C405.8,110,406,109.7,406.1,109.4z M403.7,111.9c0.4-0.2,0.7-0.4,1-0.7l71,66.4L428,235.1c-0.9-0.5-1.9-0.8-2.9-0.8L403,112.1
	C403.3,112.1,403.5,112,403.7,111.9z M401.1,112.4c0.2,0,0.5,0,0.7,0l22.1,122.2c-0.2,0.1-0.4,0.1-0.6,0.2c-0.2,0.1-0.5,0.2-0.7,0.4
	L383,190.4L401.1,112.4z M399.1,115.4L382,189.3l-5.6-6.3c1.3-1.4,1.6-3.5,0.8-5.4c-0.5-1-1.2-1.7-2.1-2.2L399.1,115.4z
	 M374.7,184.2c0.2-0.1,0.5-0.2,0.7-0.4l6.2,7l-15.3,65.9l6.5-72.1C373.4,184.6,374.1,184.4,374.7,184.2z M368.2,182
	c0.7,1.3,1.9,2.2,3.3,2.5l-6.9,76.4c-0.6,0-1.3,0.2-1.9,0.5c-1.5,0.7-2.4,2-2.7,3.4l-143.2-22.6c0-0.6,0-1.3-0.2-1.9L368.2,182z
	 M216.5,243.4L359.9,266c0,0.2,0,0.4,0.1,0.6L277.7,285l-29.8,6.6c-0.1-0.1-0.1-0.3-0.2-0.4c-1.2-2.5-4.1-3.5-6.5-2.4l-26.6-42.9
	C215.5,245.3,216.1,244.4,216.5,243.4z M213.5,246.5l26.7,43c-1,0.8-1.6,2-1.8,3.2H202l9.1-46C211.9,246.8,212.7,246.8,213.5,246.5z
	 M212.6,172.9l-1.3,63.9c-0.5,0.1-1.1,0.2-1.6,0.4c-2.5,1.2-3.5,4.1-2.4,6.6c0.3,0.6,0.6,1.1,1.1,1.5l-29.4,44h-0.1L212.6,172.9
	L212.6,172.9z M210.4,172.1c0.3,0.2,0.6,0.4,0.9,0.5L177.6,289c-0.9-0.1-1.9,0-2.9,0.4c-0.2,0.1-0.3,0.2-0.5,0.3l-34.6-42.9
	L210.4,172.1z M70.7,157.1l137.7,11.2c0,0.6,0.2,1.3,0.5,1.9c0.2,0.4,0.4,0.7,0.7,1L139,245.8l-69.5-86.1
	C70.1,159,70.5,158.1,70.7,157.1z M67.9,160.7c0.2-0.1,0.3-0.2,0.5-0.3l69.6,86.3l-29.1,30.8c-1.1-0.8-2.5-1.1-3.8-0.9L67.9,160.7
	C67.9,160.8,67.9,160.7,67.9,160.7z M66.6,161.1L103.8,277c-0.4,0.2-0.8,0.5-1.2,0.8l-76.8-67.9l37.3-49.5
	C64.2,161.1,65.4,161.3,66.6,161.1z M3.2,125.9l49.6-34.1c1,1.2,2.5,1.8,4,1.7l7.6,57.9c-0.3,0.1-0.5,0.2-0.7,0.3
	c-0.9,0.4-1.5,1-2,1.7L3.2,125.9z M0.2,187.3c0.8-1.2,1.1-2.6,0.7-4.1l60.5-24.8c0.2,0.4,0.5,0.8,0.8,1.1l-37.3,49.4L0.2,187.3z
	 M25,210.9l76.8,67.9c-0.1,0.2-0.2,0.4-0.3,0.6L3.4,246.1c0.3-1.1,0.2-2.2-0.3-3.3c-0.3-0.6-0.6-1-1-1.4L25,210.9z M3,247.3
	l98.1,33.3c-0.2,1-0.1,2.1,0.4,3.1c0.5,1.1,1.5,2,2.5,2.4l-20.5,72.2c-0.9-0.1-1.9,0-2.8,0.4c-0.1,0-0.1,0.1-0.2,0.1L1.8,248.7
	C2.3,248.3,2.7,247.8,3,247.3z M44,310.1l27.8,39l-28.9-35C43.8,313,44.3,311.5,44,310.1z M37.3,306.3L9.7,262l31.8,44.5
	C40.2,305.8,38.7,305.7,37.3,306.3z M40.4,315.7c0.3-0.1,0.5-0.2,0.8-0.3c0.3-0.1,0.5-0.3,0.7-0.4l37.2,44.9
	c-0.8,0.9-1.3,2.1-1.3,3.3l-31.9,3.7L40.4,315.7z M48.5,411.8c-0.5,0.2-1,0.6-1.4,0.9L0.4,375.9c0.4-0.7,0.7-1.6,0.7-2.5l43.7-5.1
	l4.6,43.2C49.1,411.6,48.8,411.7,48.5,411.8z M49.9,421.2c0.9,0.1,1.9,0,2.8-0.4c0.4-0.2,0.7-0.4,1.1-0.7l3.8,3.6l-28.8,71.1
	L49.9,421.2z M58.6,424.6L151,510c-0.4,0.6-0.7,1.3-0.8,2l-120.4-6.3c0-0.6-0.2-1.2-0.5-1.7c-0.5-1-1.2-1.7-2.1-2.2L58.6,424.6z
	 M150.5,514.8L85.7,552l-56.5-43.4c0.3-0.5,0.5-1,0.6-1.6l120.4,6.3C150.2,513.8,150.3,514.3,150.5,514.8z M45.7,570.4L27,510.7l0,0
	c0.5-0.3,1-0.6,1.4-1l56.1,43.1l-34,19.6C49.4,570.8,47.5,570.1,45.7,570.4z M128.3,587.8l-76.8-12.4c0-0.7-0.1-1.4-0.4-2l34.5-19.8
	l43.1,33.1C128.6,587.1,128.4,587.4,128.3,587.8z M130.9,584.7c-0.5,0.3-1,0.6-1.4,1l-42.7-32.8l63.6-36.5l-16.8,67.9
	C132.7,584.2,131.8,584.3,130.9,584.7z M136.6,585.8c-0.5-0.5-1.1-0.9-1.8-1.2l16.8-68.1c1.4,1.4,3.6,1.8,5.6,0.9
	c1.9-0.9,2.9-2.8,2.9-4.7l99.7-18.2c0.1,0.4,0.3,0.7,0.5,1L136.6,585.8z M259.4,492.7c0,0.2,0,0.4,0.1,0.5l-99.6,18.2
	c-0.1-0.2-0.1-0.4-0.2-0.6c-0.1-0.2-0.2-0.4-0.3-0.6l63.4-53.1l37.6,32.7C259.8,490.6,259.4,491.6,259.4,492.7z M264.4,487.7
	c-1.2,0-2.3,0.5-3.2,1.2l-37.5-32.6l65.3-54.7c0.4,0.4,0.9,0.7,1.4,0.9l-24.8,85.4C265.3,487.8,264.9,487.7,264.4,487.7z
	 M339.3,475.1c0,0.1,0,0.3,0,0.4L269.1,491c-0.4-1.1-1.2-2.1-2.3-2.7l24.8-85.5c0.8,0.1,1.6,0,2.4-0.2l46.9,68.7
	C340,472.3,339.3,473.6,339.3,475.1z M345.2,470.1c-0.3-0.1-0.6-0.1-0.9-0.1c-0.8,0-1.6,0.2-2.3,0.6L295.3,402
	c0.2-0.1,0.3-0.3,0.5-0.4l55.3,35c-0.3,0.6-0.5,1.4-0.5,2.1c0,2.1,1.3,3.9,3.2,4.7L345.2,470.1z M355.7,433.7c-1.6,0-3,0.7-3.9,1.9
	l-55.2-35c0.6-0.9,0.9-2,0.8-3l72.3-14.5c0.1,0.2,0.1,0.3,0.2,0.5c0.5,1.1,1.4,1.9,2.4,2.3l-15.4,47.9
	C356.5,433.8,356.1,433.7,355.7,433.7z M478,469.2l-117.3-29.5c0.1-0.3,0.1-0.6,0.1-0.9c0-1.9-1.1-3.6-2.7-4.4l15.4-48
	c1,0.2,2,0.1,3-0.4c0.2-0.1,0.4-0.2,0.6-0.3l101.3,83.1C478.2,468.9,478.1,469,478,469.2z M479.4,468L378,384.8
	c1.1-1.3,1.6-3.1,1.1-4.7l74.1,8.7c0,0.2-0.1,0.5-0.1,0.8c0,2.8,2.3,5.1,5.1,5.1c0.5,0,1.1-0.1,1.6-0.3l20.9,73.2
	C480.2,467.6,479.8,467.8,479.4,468z M482,467.4l-21.1-73.6c1.3-0.8,2.2-2.2,2.3-3.9l49.4,5.8c0,0.1,0,0.2,0,0.3
	c0,1.8,0.9,3.3,2.3,4.2L483,467.5C482.7,467.4,482.3,467.4,482,467.4z M484.9,468.5c-0.2-0.2-0.4-0.3-0.7-0.4l31.8-67.2
	c0.5,0.2,1.1,0.3,1.6,0.3c2.5,0,4.6-1.8,5-4.2l55.4,6.5c0,0.7,0.2,1.4,0.5,2c0.2,0.4,0.5,0.8,0.8,1.2L484.9,468.5z M579.5,399.8
	l-48.2-36.9l15.7-40c0.9,0.3,1.8,0.3,2.7,0.1l30.8,76C580.2,399.2,579.8,399.5,579.5,399.8z M584.3,398.5c-0.8-0.2-1.7-0.2-2.6,0
	l-30.8-76c2.2-1.3,3.2-4.1,2-6.4c-0.1-0.1-0.1-0.2-0.2-0.3l94.8-70.8c0.3,0.3,0.7,0.6,1.1,0.8L584.3,398.5z M652.8,236.8
	c-1.2-0.4-2.5-0.4-3.8,0.2c-0.2,0.1-0.4,0.2-0.6,0.4l-65.3-74.8c0.1-0.1,0.1-0.2,0.2-0.2l82.9,48.1L652.8,236.8z M654,237.4
	l13.3-26.3l54.3,31.5c-0.1,0.3-0.3,0.7-0.3,1.1l-65.2-2.7c0-0.6-0.2-1.1-0.4-1.7C655.3,238.5,654.7,237.9,654,237.4z M724.2,264.4
	c-1,0.5-1.8,1.3-2.3,2.2l-65.9-24c0-0.1,0-0.2,0.1-0.2l65.2,2.7c0,0.6,0.2,1.1,0.4,1.7c0.8,1.6,2.2,2.6,3.9,2.8l0.1,14.5
	C725.2,264,724.7,264.2,724.2,264.4z M726.2,239.6c-0.2,0-0.3,0-0.5,0l-7.4-32.8l-13.9-62c0.1-0.1,0.3-0.1,0.4-0.2
	c1.3-0.6,2.3-1.8,2.6-3.1l31,5.5L726.2,239.6z M729.5,265.1c-0.7-0.6-1.6-1-2.5-1.1l-0.1-14.5c0.5-0.1,1-0.2,1.4-0.4
	c1.2-0.6,2.1-1.6,2.5-2.7l14.7,3.5L729.5,265.1z M794.8,262.2l-63.6,5.6c-0.1-0.4-0.2-0.7-0.4-1c-0.1-0.3-0.3-0.6-0.5-0.8l16.6-15.7
	l47.9,11.6C794.8,262,794.8,262.1,794.8,262.2z M800.9,257.6c-1.1-0.3-2.2-0.2-3.3,0.3c-1.2,0.6-2.1,1.6-2.5,2.7L748,249.2
	l85.9-81.3c0.2,0.2,0.5,0.4,0.8,0.5L800.9,257.6z M835.9,168.9c0.8,0.2,1.7,0.2,2.6-0.1l8.9,14l-44.6,73.4L835.9,168.9z
	 M803.2,258.8c-0.1-0.1-0.2-0.2-0.3-0.2l45.3-74.5l15.6,24.5L803.2,258.8z M893.3,258.3l-88.6,3.3c-0.1-0.5-0.2-0.9-0.4-1.4
	c-0.1-0.2-0.2-0.4-0.3-0.5l60.5-50.2l29.6,46.4C893.6,256.6,893.4,257.4,893.3,258.3z M897.4,253.8c-0.9,0.2-1.7,0.6-2.4,1.2
	l-29.5-46.3l27-22.4c0.6,0.6,1.4,1,2.2,1.2L897.4,253.8z M892.8,102.4C892.8,102.4,892.7,102.4,892.8,102.4l-39.6-58.8
	c0.3-0.4,0.6-0.8,0.8-1.2l70.3,23.2l-27,36.9C895.9,101.8,894.3,101.7,892.8,102.4z M933.5,85.3c-0.6,2.1,0.4,4.3,2.2,5.4
	l-36.5,13.4l0.2,0.6c-0.3-0.6-0.6-1.1-1.1-1.5L925.6,66l14.1,4.6l-1.4,11C936.1,81.6,934.1,83.1,933.5,85.3z M939.5,81.8l1.4-10.7
	l23.3,7.7c0,0.2-0.1,0.5-0.1,0.7l-21.3,5.3C942.3,83.3,941.1,82.2,939.5,81.8z M943.2,86l17-4.3L943,88.1c0-0.1,0.1-0.2,0.1-0.2
	C943.2,87.2,943.2,86.6,943.2,86z M1006.7,142.9l-64-53.4l21.7-8c0,0.1,0.1,0.2,0.1,0.3c1.1,2.3,3.6,3.3,5.9,2.6l36.4,58.3
	C1006.9,142.8,1006.8,142.8,1006.7,142.9z M1009.4,141.6c-0.5,0.1-0.9,0.2-1.4,0.4l-36.3-58.1c1.9-1.2,2.8-3.5,2.1-5.6l39.4-9.9
	c0.6,1.4,1.8,2.6,3.4,3l0,0L1009.4,141.6z M1012.9,142.5c-0.5-0.3-1-0.6-1.6-0.8c-0.2-0.1-0.4-0.1-0.7-0.1l7.1-70
	c0.6,0,1.2-0.1,1.8-0.3l26.2,39.1L1012.9,142.5z M1097.6,189.1l-19.5-9.5l-63.5-31.1c0.1-0.2,0.2-0.5,0.3-0.7c0.4-1.6,0-3.2-1-4.4
	l32.7-32l51.7,76.9C1098,188.5,1097.8,188.8,1097.6,189.1z M1099.1,187.4l-51.7-76.9l47.9-46.9c0.5,0.4,1.1,0.7,1.8,0.9
	c0.2,0.1,0.5,0.1,0.7,0.1l2.6,122.1C1100,186.9,1099.6,187.1,1099.1,187.4z M1104.8,187.4c-0.5-0.3-1-0.6-1.6-0.7
	c-0.5-0.1-1-0.2-1.5-0.2l-2.6-121.9c0.7-0.1,1.3-0.4,1.9-0.7l60.2,71.5L1104.8,187.4z M1181.3,162.3c-0.2,0.8-0.2,1.5,0,2.3
	l-74.8,24.6c-0.2-0.3-0.4-0.7-0.6-1l56.4-52l20.2,24C1181.8,160.9,1181.5,161.5,1181.3,162.3z M1183.3,159.4l-20.2-24l68.3-63
	c0.1,0.1,0.2,0.2,0.4,0.3l-15.3,29.8l-28.8,56.3c-0.1-0.1-0.3-0.1-0.4-0.1C1185.9,158.4,1184.4,158.7,1183.3,159.4z M1288.2,226.1
	L1185.6,213c0-0.2,0.1-0.3,0.1-0.5c0-2.6-1.9-4.6-4.4-5l4.8-39.1c1.5,0,2.9-0.7,3.8-1.8l98.5,58.8
	C1288.3,225.7,1288.2,225.9,1288.2,226.1z M1289,224.4l-98.5-58.8c0.1-0.3,0.2-0.5,0.3-0.8c0.2-0.9,0.2-1.7,0-2.5l66.8-28.8
	l32.8,89.6C1289.9,223.5,1289.4,223.9,1289,224.4z M1291.6,222.6l-32.8-89.6l27-11.6c0.6,1.1,1.7,1.9,3,2.3c0.2,0.1,0.5,0.1,0.7,0.1
	l2.3,98.8C1291.8,222.6,1291.7,222.6,1291.6,222.6z M1294.2,222.6c-0.3-0.1-0.7-0.1-1.1-0.2l-2.3-98.7c0.8-0.1,1.5-0.4,2.1-0.9
	l55.1,58.5l-51.9,42.3C1295.6,223.2,1294.9,222.8,1294.2,222.6z M1333.6,283.8c-0.2-0.1-0.3-0.1-0.5-0.2c-1.2-0.3-2.3-0.2-3.3,0.3
	l-33.6-52.8c0.8-0.6,1.3-1.5,1.6-2.5c0.2-0.6,0.2-1.3,0.1-1.9l71.7-16.9c0.3,0.9,1,1.7,1.8,2.3L1333.6,283.8z M1336.6,286.9
	c-0.3-1-1-1.9-1.9-2.5l37.7-71.7c0.2,0.1,0.3,0.1,0.5,0.1c0.4,0.1,0.8,0.2,1.2,0.2l8.2,65.3L1336.6,286.9z M1456.7,263.1
	c-0.1,0.5-0.2,1-0.2,1.5l-73,13.6l-8.2-65.3c1-0.3,1.9-0.8,2.5-1.6l52.4,34.2l26.5,17.3C1456.8,263,1456.7,263,1456.7,263.1z
	 M1457.3,261.7l-78.7-51.4c0.1-0.3,0.3-0.6,0.3-0.9c0.1-0.3,0.1-0.6,0.1-0.9l61.7-3.9l17.1,56.4
	C1457.7,261.2,1457.5,261.5,1457.3,261.7z M1460.3,259.5c-0.5,0.1-1,0.3-1.4,0.6l-16.8-55.6l35.4-2.2c0.3,1.4,1.2,2.7,2.6,3.4
	L1460.3,259.5z M1464.4,260.3c-0.5-0.3-1-0.6-1.6-0.8c-0.3-0.1-0.7-0.1-1-0.2l19.5-53.3c0.9,0.2,1.9,0.1,2.7-0.2l17.4,33
	L1464.4,260.3z M1520.4,280.3l-54-15.1c0.2-1.4-0.2-2.9-1-4l36.7-21.1l20.2,38.3C1521.5,278.8,1520.8,279.5,1520.4,280.3z
	 M1527,278.1c-0.3-0.1-0.6-0.3-0.9-0.3c-0.9-0.2-1.8-0.2-2.7,0.1l-20.2-38.4l84.1-48.5c0.2,0.2,0.4,0.5,0.6,0.6l-49.2,70L1527,278.1
	z M1528.9,279.9c-0.3-0.4-0.6-0.8-0.9-1.1l11.1-15.8l49.7-70.7c0.3,0.2,0.7,0.3,1.1,0.4c0.7,0.2,1.4,0.2,2,0.1l16.4,56L1528.9,279.9
	z M1659.6,226.3c-0.2,0.8-0.2,1.7,0,2.4l-50,19.6l-16.3-55.9c0.8-0.3,1.5-0.9,2-1.6l64.6,34.9C1659.7,226,1659.6,226.1,1659.6,226.3
	z M1668.8,225.3l73.4-49.6c0.9,1.1,2.3,1.7,3.8,1.7c0.1,0,0.1,0,0.2,0l8,49.2l-84.9,0.3C1669.2,226.4,1669,225.8,1668.8,225.3z
	 M1669.3,228.2l85.1-0.3l3.8,23.4L1669.3,228.2z M1768.2,251.3c-0.6-1.3-1.7-2.2-3.2-2.6c-2.2-0.6-4.5,0.5-5.6,2.4l-3.8-23.1
	l82.2-0.3c0,0.1,0,0.2,0,0.2L1768.2,251.3z M1837.9,225.8c-0.1,0.2-0.1,0.4-0.1,0.6l-82.4,0.3l-8-49.4c1.1-0.3,2-1,2.6-1.8
	l88.2,49.7C1838,225.4,1838,225.6,1837.9,225.8z M1847.6,226.5c-0.2-2-1.6-3.7-3.7-4.2c-2-0.5-4,0.3-5.2,1.8l-88.2-49.7
	c0.1-0.3,0.2-0.6,0.3-0.9l152.4,9.6c0,0.7,0.3,1.4,0.6,2.1L1847.6,226.5z"/>
</svg>
