<?xml version="1.0" encoding="utf-8"?>
<!-- Generator: Adobe Illustrator 23.0.0, SVG Export Plug-In . SVG Version: 6.00 Build 0)  -->
<svg version="1.1" id="Capa_1" xmlns="http://www.w3.org/2000/svg" xmlns:xlink="http://www.w3.org/1999/xlink" x="0px" y="0px"
	 viewBox="0 0 200 42" style="enable-background:new 0 0 200 42;" xml:space="preserve">
<style type="text/css">
	.st0{fill:#FFFFFF;}
</style>
<g>
	<g>
		<g>
			<path class="st0" d="M5.3,6.8c1.1,0,2.1,0.2,2.9,0.7c0.8,0.5,1.4,1.1,1.8,2c0.4,0.9,0.6,1.9,0.6,3.1c0,0.9-0.1,1.7-0.3,2.4
				c-0.2,0.7-0.6,1.3-1,1.8c-0.5,0.5-1,0.9-1.7,1.2c-0.7,0.3-1.4,0.4-2.3,0.4c-0.9,0-1.6-0.1-2.3-0.4c-0.7-0.3-1.2-0.7-1.7-1.2
				c-0.5-0.5-0.8-1.1-1-1.9C0.1,14.2,0,13.4,0,12.6c0-0.9,0.1-1.7,0.4-2.4c0.2-0.7,0.6-1.3,1-1.8c0.5-0.5,1-0.9,1.7-1.2
				C3.7,6.9,4.5,6.8,5.3,6.8z M8.5,12.6c0-0.8-0.1-1.5-0.4-2.1C7.8,9.8,7.5,9.4,7,9.1c-0.5-0.3-1-0.5-1.7-0.5
				c-0.4,0-0.9,0.1-1.2,0.3C3.7,9,3.4,9.3,3.1,9.6c-0.3,0.3-0.5,0.7-0.6,1.3c-0.2,0.5-0.2,1.1-0.2,1.7c0,0.6,0.1,1.2,0.2,1.7
				c0.2,0.5,0.4,0.9,0.7,1.3c0.3,0.3,0.6,0.6,1,0.8c0.4,0.2,0.8,0.3,1.2,0.3c0.6,0,1.1-0.1,1.6-0.4c0.5-0.3,0.9-0.7,1.1-1.3
				C8.3,14.2,8.5,13.5,8.5,12.6z"/>
			<path class="st0" d="M17,18.2h-3.3c-0.5,0-0.8-0.1-1-0.3c-0.2-0.2-0.3-0.6-0.3-1.1V8.4c0-0.5,0.1-0.9,0.3-1.1
				c0.2-0.2,0.6-0.3,1-0.3h3.5c0.5,0,1,0,1.4,0.1c0.4,0.1,0.7,0.2,1,0.4c0.3,0.2,0.5,0.4,0.7,0.6c0.2,0.2,0.4,0.5,0.5,0.8
				c0.1,0.3,0.2,0.6,0.2,0.9c0,1.1-0.5,1.9-1.6,2.5c1.4,0.5,2.2,1.4,2.2,2.7c0,0.6-0.2,1.2-0.5,1.7c-0.3,0.5-0.7,0.9-1.3,1.1
				c-0.3,0.1-0.7,0.2-1.1,0.3C18,18.2,17.5,18.2,17,18.2z M14.5,8.7v2.9h2c0.6,0,1-0.1,1.3-0.2c0.3-0.1,0.5-0.3,0.7-0.6
				c0.1-0.2,0.2-0.5,0.2-0.7c0-0.6-0.2-0.9-0.6-1.1c-0.4-0.2-1-0.3-1.8-0.3H14.5z M16.8,13.2h-2.3v3.3h2.4c1.5,0,2.2-0.6,2.2-1.7
				c0-0.6-0.2-1-0.6-1.2C18.1,13.4,17.6,13.2,16.8,13.2z"/>
			<path class="st0" d="M31.2,14.8c0,0.7-0.2,1.3-0.5,1.8c-0.3,0.5-0.8,1-1.5,1.3c-0.7,0.3-1.4,0.5-2.3,0.5c-1.1,0-2-0.2-2.7-0.6
				c-0.5-0.3-0.9-0.7-1.2-1.2c-0.3-0.5-0.5-1-0.5-1.5c0-0.3,0.1-0.5,0.3-0.7c0.2-0.2,0.4-0.3,0.7-0.3c0.2,0,0.4,0.1,0.6,0.2
				c0.2,0.2,0.3,0.4,0.4,0.7c0.1,0.4,0.3,0.7,0.5,0.9c0.2,0.2,0.4,0.4,0.7,0.6c0.3,0.2,0.7,0.2,1.2,0.2c0.7,0,1.2-0.2,1.6-0.5
				c0.4-0.3,0.6-0.7,0.6-1.2c0-0.4-0.1-0.7-0.3-0.9c-0.2-0.2-0.5-0.4-0.9-0.5c-0.4-0.1-0.8-0.3-1.4-0.4c-0.8-0.2-1.4-0.4-2-0.7
				c-0.5-0.3-1-0.6-1.3-1c-0.3-0.4-0.5-1-0.5-1.6c0-0.6,0.2-1.2,0.5-1.6c0.3-0.5,0.8-0.8,1.4-1.1c0.6-0.3,1.4-0.4,2.2-0.4
				c0.7,0,1.3,0.1,1.7,0.3c0.5,0.2,0.9,0.4,1.2,0.7c0.3,0.3,0.6,0.6,0.7,0.9c0.1,0.3,0.2,0.6,0.2,0.9c0,0.3-0.1,0.5-0.3,0.7
				c-0.2,0.2-0.4,0.3-0.7,0.3c-0.3,0-0.4-0.1-0.6-0.2c-0.1-0.1-0.3-0.3-0.4-0.6c-0.2-0.4-0.4-0.8-0.7-1c-0.3-0.2-0.7-0.4-1.3-0.4
				c-0.6,0-1,0.1-1.4,0.4c-0.4,0.3-0.5,0.6-0.5,0.9c0,0.2,0.1,0.4,0.2,0.6c0.1,0.2,0.3,0.3,0.5,0.4c0.2,0.1,0.4,0.2,0.6,0.3
				c0.2,0.1,0.6,0.2,1.1,0.3c0.6,0.1,1.2,0.3,1.7,0.5c0.5,0.2,0.9,0.4,1.3,0.7c0.4,0.3,0.6,0.6,0.8,1C31.1,13.8,31.2,14.3,31.2,14.8
				z"/>
			<path class="st0" d="M39.9,8.7h-5v2.8h4.6c0.3,0,0.6,0.1,0.8,0.2c0.2,0.2,0.3,0.4,0.3,0.6c0,0.3-0.1,0.5-0.2,0.6
				c-0.2,0.2-0.4,0.2-0.8,0.2h-4.6v3.2h5.2c0.3,0,0.6,0.1,0.8,0.2c0.2,0.2,0.3,0.4,0.3,0.7c0,0.3-0.1,0.5-0.3,0.6
				c-0.2,0.2-0.4,0.2-0.8,0.2h-6c-0.5,0-0.8-0.1-1-0.3s-0.3-0.6-0.3-1.1V8.4c0-0.3,0-0.6,0.1-0.8c0.1-0.2,0.2-0.4,0.4-0.5
				C33.5,7,33.7,7,34.1,7h5.9c0.4,0,0.6,0.1,0.8,0.2C40.9,7.4,41,7.6,41,7.9c0,0.3-0.1,0.5-0.3,0.6C40.5,8.7,40.3,8.7,39.9,8.7z"/>
			<path class="st0" d="M45.4,13.4h-0.8V17c0,0.5-0.1,0.8-0.3,1c-0.2,0.2-0.5,0.3-0.8,0.3c-0.4,0-0.6-0.1-0.8-0.4
				c-0.2-0.2-0.3-0.6-0.3-1V8.4c0-0.5,0.1-0.8,0.3-1.1C43,7.1,43.3,7,43.8,7h3.6c0.5,0,0.9,0,1.3,0.1c0.4,0,0.7,0.1,1,0.3
				C50,7.5,50.3,7.7,50.5,8c0.3,0.3,0.5,0.6,0.6,1c0.1,0.4,0.2,0.8,0.2,1.2c0,0.8-0.2,1.5-0.7,2c-0.5,0.5-1.2,0.9-2.1,1.1
				c0.4,0.2,0.8,0.5,1.1,0.9c0.4,0.4,0.7,0.9,1,1.3c0.3,0.5,0.5,0.9,0.7,1.3c0.2,0.4,0.2,0.6,0.2,0.8c0,0.1,0,0.3-0.1,0.4
				c-0.1,0.1-0.2,0.3-0.4,0.3c-0.2,0.1-0.3,0.1-0.6,0.1c-0.2,0-0.5-0.1-0.6-0.2c-0.2-0.1-0.3-0.3-0.4-0.5c-0.1-0.2-0.3-0.5-0.5-0.8
				L48,15.4c-0.3-0.6-0.6-1-0.9-1.3c-0.3-0.3-0.5-0.5-0.8-0.6C46.1,13.5,45.8,13.4,45.4,13.4z M46.7,8.7h-2v3.1h2c0.5,0,1,0,1.3-0.1
				c0.4-0.1,0.6-0.3,0.8-0.5c0.2-0.2,0.3-0.5,0.3-0.9c0-0.3-0.1-0.6-0.2-0.8c-0.2-0.2-0.4-0.4-0.6-0.5C48,8.8,47.5,8.7,46.7,8.7z"/>
			<path class="st0" d="M54.6,8.3l2.5,7.5l2.5-7.6c0.1-0.4,0.2-0.7,0.3-0.8C59.9,7.3,60,7.1,60.1,7c0.1-0.1,0.4-0.2,0.6-0.2
				c0.2,0,0.4,0,0.5,0.1c0.2,0.1,0.3,0.2,0.4,0.4c0.1,0.2,0.1,0.3,0.1,0.5c0,0.1,0,0.2,0,0.4c0,0.1-0.1,0.3-0.1,0.4
				c0,0.1-0.1,0.3-0.1,0.4l-2.7,7.3c-0.1,0.3-0.2,0.5-0.3,0.8c-0.1,0.3-0.2,0.5-0.3,0.7c-0.1,0.2-0.3,0.3-0.5,0.5
				c-0.2,0.1-0.5,0.2-0.8,0.2c-0.3,0-0.6-0.1-0.8-0.2c-0.2-0.1-0.4-0.3-0.5-0.5c-0.1-0.2-0.2-0.4-0.3-0.7c-0.1-0.2-0.2-0.5-0.3-0.8
				L52.5,9c0-0.1-0.1-0.3-0.1-0.4c0-0.1-0.1-0.3-0.1-0.4c0-0.1,0-0.3,0-0.4c0-0.3,0.1-0.5,0.3-0.7c0.2-0.2,0.5-0.3,0.8-0.3
				c0.4,0,0.6,0.1,0.8,0.4C54.2,7.4,54.4,7.8,54.6,8.3z"/>
			<path class="st0" d="M69.2,16.9l-0.5-1.4h-4.4L63.7,17c-0.2,0.6-0.4,0.9-0.5,1.1c-0.1,0.2-0.4,0.3-0.7,0.3
				c-0.3,0-0.5-0.1-0.7-0.3c-0.2-0.2-0.3-0.4-0.3-0.7c0-0.2,0-0.3,0.1-0.5c0-0.2,0.1-0.4,0.2-0.7l2.8-7.3c0.1-0.2,0.2-0.5,0.3-0.8
				c0.1-0.3,0.2-0.5,0.4-0.7c0.1-0.2,0.3-0.4,0.5-0.5c0.2-0.1,0.5-0.2,0.8-0.2c0.3,0,0.6,0.1,0.8,0.2c0.2,0.1,0.4,0.3,0.5,0.5
				c0.1,0.2,0.2,0.4,0.3,0.6c0.1,0.2,0.2,0.5,0.3,0.9l2.9,7.2c0.2,0.6,0.3,1,0.3,1.2c0,0.3-0.1,0.5-0.3,0.7
				c-0.2,0.2-0.5,0.3-0.8,0.3c-0.2,0-0.3,0-0.4-0.1c-0.1-0.1-0.2-0.2-0.3-0.3c-0.1-0.1-0.2-0.3-0.3-0.5S69.3,17.1,69.2,16.9z
				 M64.8,13.8h3.3l-1.6-4.6L64.8,13.8z"/>
			<path class="st0" d="M78.6,8.9h-2.4V17c0,0.5-0.1,0.8-0.3,1c-0.2,0.2-0.5,0.3-0.8,0.3c-0.3,0-0.6-0.1-0.8-0.3
				c-0.2-0.2-0.3-0.6-0.3-1V8.9h-2.4c-0.4,0-0.7-0.1-0.8-0.3c-0.2-0.2-0.3-0.4-0.3-0.7c0-0.3,0.1-0.5,0.3-0.7
				C70.9,7.1,71.2,7,71.6,7h7c0.4,0,0.7,0.1,0.9,0.3c0.2,0.2,0.3,0.4,0.3,0.7c0,0.3-0.1,0.5-0.3,0.7C79.3,8.8,79,8.9,78.6,8.9z"/>
			<path class="st0" d="M85.2,6.8c1.1,0,2.1,0.2,2.9,0.7c0.8,0.5,1.4,1.1,1.8,2c0.4,0.9,0.6,1.9,0.6,3.1c0,0.9-0.1,1.7-0.3,2.4
				c-0.2,0.7-0.6,1.3-1,1.8c-0.5,0.5-1,0.9-1.7,1.2c-0.7,0.3-1.4,0.4-2.3,0.4c-0.9,0-1.6-0.1-2.3-0.4c-0.7-0.3-1.2-0.7-1.7-1.2
				c-0.5-0.5-0.8-1.1-1-1.9c-0.2-0.7-0.3-1.5-0.3-2.3c0-0.9,0.1-1.7,0.4-2.4c0.2-0.7,0.6-1.3,1-1.8c0.5-0.5,1-0.9,1.7-1.2
				C83.6,6.9,84.4,6.8,85.2,6.8z M88.3,12.6c0-0.8-0.1-1.5-0.4-2.1c-0.3-0.6-0.6-1.1-1.1-1.4c-0.5-0.3-1-0.5-1.7-0.5
				c-0.4,0-0.9,0.1-1.2,0.3c-0.4,0.2-0.7,0.4-1,0.7c-0.3,0.3-0.5,0.7-0.6,1.3c-0.2,0.5-0.2,1.1-0.2,1.7c0,0.6,0.1,1.2,0.2,1.7
				c0.2,0.5,0.4,0.9,0.7,1.3c0.3,0.3,0.6,0.6,1,0.8c0.4,0.2,0.8,0.3,1.2,0.3c0.6,0,1.1-0.1,1.6-0.4c0.5-0.3,0.9-0.7,1.1-1.3
				C88.2,14.2,88.3,13.5,88.3,12.6z"/>
			<path class="st0" d="M95.1,13.4h-0.8V17c0,0.5-0.1,0.8-0.3,1c-0.2,0.2-0.5,0.3-0.8,0.3c-0.4,0-0.6-0.1-0.8-0.4
				c-0.2-0.2-0.3-0.6-0.3-1V8.4c0-0.5,0.1-0.8,0.3-1.1C92.7,7.1,93,7,93.5,7h3.6c0.5,0,0.9,0,1.3,0.1c0.4,0,0.7,0.1,1,0.3
				c0.3,0.1,0.6,0.4,0.9,0.6c0.3,0.3,0.5,0.6,0.6,1c0.1,0.4,0.2,0.8,0.2,1.2c0,0.8-0.2,1.5-0.7,2s-1.2,0.9-2.1,1.1
				c0.4,0.2,0.8,0.5,1.1,0.9c0.4,0.4,0.7,0.9,1,1.3c0.3,0.5,0.5,0.9,0.7,1.3c0.2,0.4,0.2,0.6,0.2,0.8c0,0.1,0,0.3-0.1,0.4
				c-0.1,0.1-0.2,0.3-0.4,0.3c-0.2,0.1-0.3,0.1-0.6,0.1c-0.2,0-0.5-0.1-0.6-0.2s-0.3-0.3-0.4-0.5c-0.1-0.2-0.3-0.5-0.5-0.8l-0.9-1.5
				c-0.3-0.6-0.6-1-0.9-1.3c-0.3-0.3-0.5-0.5-0.8-0.6C95.9,13.5,95.5,13.4,95.1,13.4z M96.4,8.7h-2v3.1h2c0.5,0,1,0,1.3-0.1
				c0.4-0.1,0.6-0.3,0.8-0.5c0.2-0.2,0.3-0.5,0.3-0.9c0-0.3-0.1-0.6-0.2-0.8c-0.2-0.2-0.4-0.4-0.6-0.5C97.7,8.8,97.2,8.7,96.4,8.7z"
				/>
			<path class="st0" d="M102.8,17V8.2c0-0.5,0.1-0.8,0.3-1c0.2-0.2,0.5-0.3,0.8-0.3c0.3,0,0.6,0.1,0.8,0.3c0.2,0.2,0.3,0.6,0.3,1V17
				c0,0.5-0.1,0.8-0.3,1c-0.2,0.2-0.5,0.3-0.8,0.3c-0.3,0-0.6-0.1-0.8-0.3C102.9,17.8,102.8,17.5,102.8,17z"/>
			<path class="st0" d="M111.9,6.8c1.1,0,2.1,0.2,2.9,0.7s1.4,1.1,1.8,2c0.4,0.9,0.6,1.9,0.6,3.1c0,0.9-0.1,1.7-0.3,2.4
				c-0.2,0.7-0.6,1.3-1,1.8c-0.5,0.5-1,0.9-1.7,1.2c-0.7,0.3-1.4,0.4-2.3,0.4c-0.9,0-1.6-0.1-2.3-0.4c-0.7-0.3-1.2-0.7-1.7-1.2
				s-0.8-1.1-1-1.9c-0.2-0.7-0.3-1.5-0.3-2.3c0-0.9,0.1-1.7,0.4-2.4c0.2-0.7,0.6-1.3,1-1.8c0.5-0.5,1-0.9,1.7-1.2
				C110.4,6.9,111.1,6.8,111.9,6.8z M115.1,12.6c0-0.8-0.1-1.5-0.4-2.1c-0.3-0.6-0.6-1.1-1.1-1.4c-0.5-0.3-1-0.5-1.7-0.5
				c-0.4,0-0.9,0.1-1.2,0.3c-0.4,0.2-0.7,0.4-1,0.7c-0.3,0.3-0.5,0.7-0.6,1.3c-0.2,0.5-0.2,1.1-0.2,1.7c0,0.6,0.1,1.2,0.2,1.7
				c0.2,0.5,0.4,0.9,0.7,1.3c0.3,0.3,0.6,0.6,1,0.8c0.4,0.2,0.8,0.3,1.2,0.3c0.6,0,1.1-0.1,1.6-0.4c0.5-0.3,0.9-0.7,1.1-1.3
				C115,14.2,115.1,13.5,115.1,12.6z"/>
			<path class="st0" d="M125.8,7h2.9c0.8,0,1.4,0.1,1.9,0.2c0.5,0.1,1,0.4,1.5,0.8c1.1,1,1.7,2.5,1.7,4.6c0,0.7-0.1,1.3-0.2,1.8
				c-0.1,0.6-0.3,1.1-0.5,1.5c-0.2,0.4-0.5,0.8-0.9,1.2c-0.3,0.3-0.6,0.5-1,0.7c-0.3,0.2-0.7,0.3-1.1,0.3c-0.4,0.1-0.9,0.1-1.4,0.1
				h-2.9c-0.4,0-0.7-0.1-0.9-0.2c-0.2-0.1-0.3-0.3-0.4-0.5c-0.1-0.2-0.1-0.5-0.1-0.9V8.4c0-0.5,0.1-0.8,0.3-1.1
				C124.9,7.1,125.3,7,125.8,7z M126.6,8.8v7.6h1.7c0.4,0,0.7,0,0.9,0c0.2,0,0.4-0.1,0.6-0.2c0.2-0.1,0.4-0.2,0.6-0.3
				c0.7-0.6,1.1-1.7,1.1-3.3c0-1.1-0.2-1.9-0.5-2.5c-0.3-0.6-0.7-0.9-1.2-1.1c-0.5-0.2-1.1-0.2-1.7-0.2H126.6z"/>
			<path class="st0" d="M135.4,17V8.2c0-0.5,0.1-0.8,0.3-1c0.2-0.2,0.5-0.3,0.8-0.3c0.3,0,0.6,0.1,0.8,0.3c0.2,0.2,0.3,0.6,0.3,1V17
				c0,0.5-0.1,0.8-0.3,1c-0.2,0.2-0.5,0.3-0.8,0.3c-0.3,0-0.6-0.1-0.8-0.3C135.5,17.8,135.4,17.5,135.4,17z"/>
			<path class="st0" d="M148,14.8c0,0.7-0.2,1.3-0.5,1.8c-0.3,0.5-0.8,1-1.5,1.3c-0.7,0.3-1.4,0.5-2.3,0.5c-1.1,0-2-0.2-2.7-0.6
				c-0.5-0.3-0.9-0.7-1.2-1.2c-0.3-0.5-0.5-1-0.5-1.5c0-0.3,0.1-0.5,0.3-0.7c0.2-0.2,0.4-0.3,0.7-0.3c0.2,0,0.4,0.1,0.6,0.2
				c0.2,0.2,0.3,0.4,0.4,0.7c0.1,0.4,0.3,0.7,0.5,0.9c0.2,0.2,0.4,0.4,0.7,0.6c0.3,0.2,0.7,0.2,1.2,0.2c0.7,0,1.2-0.2,1.6-0.5
				c0.4-0.3,0.6-0.7,0.6-1.2c0-0.4-0.1-0.7-0.3-0.9c-0.2-0.2-0.5-0.4-0.9-0.5c-0.4-0.1-0.8-0.3-1.4-0.4c-0.8-0.2-1.4-0.4-2-0.7
				c-0.5-0.3-1-0.6-1.3-1c-0.3-0.4-0.5-1-0.5-1.6c0-0.6,0.2-1.2,0.5-1.6c0.3-0.5,0.8-0.8,1.4-1.1s1.4-0.4,2.2-0.4
				c0.7,0,1.3,0.1,1.7,0.3c0.5,0.2,0.9,0.4,1.2,0.7c0.3,0.3,0.6,0.6,0.7,0.9c0.1,0.3,0.2,0.6,0.2,0.9c0,0.3-0.1,0.5-0.3,0.7
				c-0.2,0.2-0.4,0.3-0.7,0.3c-0.3,0-0.4-0.1-0.6-0.2c-0.1-0.1-0.3-0.3-0.4-0.6c-0.2-0.4-0.4-0.8-0.7-1c-0.3-0.2-0.7-0.4-1.3-0.4
				c-0.6,0-1,0.1-1.4,0.4c-0.4,0.3-0.5,0.6-0.5,0.9c0,0.2,0.1,0.4,0.2,0.6c0.1,0.2,0.3,0.3,0.5,0.4c0.2,0.1,0.4,0.2,0.6,0.3
				c0.2,0.1,0.6,0.2,1.1,0.3c0.6,0.1,1.2,0.3,1.7,0.5c0.5,0.2,0.9,0.4,1.3,0.7c0.4,0.3,0.6,0.6,0.8,1C147.9,13.8,148,14.3,148,14.8z
				"/>
			<path class="st0" d="M156.6,8.9h-2.4V17c0,0.5-0.1,0.8-0.3,1c-0.2,0.2-0.5,0.3-0.8,0.3c-0.3,0-0.6-0.1-0.8-0.3
				c-0.2-0.2-0.3-0.6-0.3-1V8.9h-2.4c-0.4,0-0.7-0.1-0.8-0.3c-0.2-0.2-0.3-0.4-0.3-0.7c0-0.3,0.1-0.5,0.3-0.7
				c0.2-0.2,0.5-0.3,0.8-0.3h7c0.4,0,0.7,0.1,0.9,0.3c0.2,0.2,0.3,0.4,0.3,0.7c0,0.3-0.1,0.5-0.3,0.7C157.2,8.8,157,8.9,156.6,8.9z"
				/>
			<path class="st0" d="M161.7,13.4h-0.8V17c0,0.5-0.1,0.8-0.3,1c-0.2,0.2-0.5,0.3-0.8,0.3c-0.4,0-0.6-0.1-0.8-0.4
				c-0.2-0.2-0.3-0.6-0.3-1V8.4c0-0.5,0.1-0.8,0.3-1.1c0.2-0.2,0.6-0.3,1-0.3h3.6c0.5,0,0.9,0,1.3,0.1c0.4,0,0.7,0.1,1,0.3
				c0.3,0.1,0.6,0.4,0.9,0.6c0.3,0.3,0.5,0.6,0.6,1c0.1,0.4,0.2,0.8,0.2,1.2c0,0.8-0.2,1.5-0.7,2c-0.5,0.5-1.2,0.9-2.1,1.1
				c0.4,0.2,0.8,0.5,1.1,0.9c0.4,0.4,0.7,0.9,1,1.3c0.3,0.5,0.5,0.9,0.7,1.3c0.2,0.4,0.2,0.6,0.2,0.8c0,0.1,0,0.3-0.1,0.4
				c-0.1,0.1-0.2,0.3-0.4,0.3c-0.2,0.1-0.3,0.1-0.6,0.1c-0.2,0-0.5-0.1-0.6-0.2c-0.2-0.1-0.3-0.3-0.4-0.5c-0.1-0.2-0.3-0.5-0.5-0.8
				l-0.9-1.5c-0.3-0.6-0.6-1-0.9-1.3c-0.3-0.3-0.5-0.5-0.8-0.6C162.4,13.5,162.1,13.4,161.7,13.4z M163,8.7h-2v3.1h2
				c0.5,0,1,0,1.3-0.1c0.4-0.1,0.6-0.3,0.8-0.5c0.2-0.2,0.3-0.5,0.3-0.9c0-0.3-0.1-0.6-0.2-0.8c-0.2-0.2-0.4-0.4-0.6-0.5
				C164.3,8.8,163.8,8.7,163,8.7z"/>
			<path class="st0" d="M169.4,17V8.2c0-0.5,0.1-0.8,0.3-1c0.2-0.2,0.5-0.3,0.8-0.3c0.3,0,0.6,0.1,0.8,0.3c0.2,0.2,0.3,0.6,0.3,1V17
				c0,0.5-0.1,0.8-0.3,1c-0.2,0.2-0.5,0.3-0.8,0.3c-0.3,0-0.6-0.1-0.8-0.3C169.5,17.8,169.4,17.5,169.4,17z"/>
			<path class="st0" d="M180.9,8.9h-2.4V17c0,0.5-0.1,0.8-0.3,1c-0.2,0.2-0.5,0.3-0.8,0.3c-0.3,0-0.6-0.1-0.8-0.3
				c-0.2-0.2-0.3-0.6-0.3-1V8.9h-2.4c-0.4,0-0.7-0.1-0.8-0.3c-0.2-0.2-0.3-0.4-0.3-0.7c0-0.3,0.1-0.5,0.3-0.7
				c0.2-0.2,0.5-0.3,0.8-0.3h7c0.4,0,0.7,0.1,0.9,0.3c0.2,0.2,0.3,0.4,0.3,0.7c0,0.3-0.1,0.5-0.3,0.7C181.5,8.8,181.2,8.9,180.9,8.9
				z"/>
			<path class="st0" d="M188.7,16.9l-0.5-1.4h-4.4l-0.5,1.4c-0.2,0.6-0.4,0.9-0.5,1.1c-0.1,0.2-0.4,0.3-0.7,0.3
				c-0.3,0-0.5-0.1-0.7-0.3c-0.2-0.2-0.3-0.4-0.3-0.7c0-0.2,0-0.3,0.1-0.5c0-0.2,0.1-0.4,0.2-0.7l2.8-7.3c0.1-0.2,0.2-0.5,0.3-0.8
				c0.1-0.3,0.2-0.5,0.4-0.7c0.1-0.2,0.3-0.4,0.5-0.5c0.2-0.1,0.5-0.2,0.8-0.2c0.3,0,0.6,0.1,0.8,0.2c0.2,0.1,0.4,0.3,0.5,0.5
				c0.1,0.2,0.2,0.4,0.3,0.6c0.1,0.2,0.2,0.5,0.3,0.9l2.9,7.2c0.2,0.6,0.3,1,0.3,1.2c0,0.3-0.1,0.5-0.3,0.7
				c-0.2,0.2-0.5,0.3-0.8,0.3c-0.2,0-0.3,0-0.4-0.1c-0.1-0.1-0.2-0.2-0.3-0.3c-0.1-0.1-0.2-0.3-0.3-0.5
				C188.8,17.3,188.7,17.1,188.7,16.9z M184.3,13.8h3.3l-1.7-4.6L184.3,13.8z"/>
			<path class="st0" d="M194.4,8.2v8.2h4.5c0.4,0,0.6,0.1,0.8,0.3c0.2,0.2,0.3,0.4,0.3,0.7c0,0.3-0.1,0.5-0.3,0.7
				c-0.2,0.2-0.5,0.3-0.8,0.3h-5.4c-0.5,0-0.8-0.1-1-0.3s-0.3-0.6-0.3-1.1V8.2c0-0.5,0.1-0.8,0.3-1c0.2-0.2,0.5-0.3,0.8-0.3
				c0.3,0,0.6,0.1,0.8,0.3C194.3,7.4,194.4,7.7,194.4,8.2z"/>
		</g>
		<g>
			<path class="st0" d="M1.2,25.1h2.6c0.7,0,1.2,0.1,1.7,0.2s0.9,0.4,1.3,0.7c1,0.9,1.5,2.2,1.5,4c0,0.6-0.1,1.1-0.2,1.6
				C8,32.2,7.9,32.6,7.6,33c-0.2,0.4-0.5,0.7-0.8,1.1c-0.3,0.2-0.5,0.4-0.9,0.6c-0.3,0.1-0.6,0.2-1,0.3C4.6,35,4.2,35,3.8,35H1.2
				c-0.4,0-0.6-0.1-0.8-0.2c-0.2-0.1-0.3-0.3-0.4-0.5C0,34.2,0,33.9,0,33.6v-7.3c0-0.4,0.1-0.7,0.3-0.9C0.5,25.2,0.8,25.1,1.2,25.1z
				 M2,26.7v6.7h1.5c0.3,0,0.6,0,0.8,0c0.2,0,0.4-0.1,0.6-0.1C5,33.2,5.1,33.1,5.3,33c0.7-0.6,1-1.5,1-2.9c0-1-0.1-1.7-0.4-2.2
				c-0.3-0.5-0.6-0.8-1.1-0.9c-0.4-0.1-0.9-0.2-1.5-0.2H2z"/>
			<path class="st0" d="M16,26.7h-4.4v2.4h4.1c0.3,0,0.5,0.1,0.7,0.2c0.1,0.1,0.2,0.3,0.2,0.5c0,0.2-0.1,0.4-0.2,0.6
				c-0.1,0.1-0.4,0.2-0.7,0.2h-4.1v2.8h4.6c0.3,0,0.5,0.1,0.7,0.2c0.2,0.1,0.2,0.3,0.2,0.6c0,0.2-0.1,0.4-0.2,0.6
				C16.7,35,16.5,35,16.2,35h-5.3c-0.4,0-0.7-0.1-0.9-0.3s-0.3-0.5-0.3-0.9v-7.4c0-0.3,0-0.5,0.1-0.7c0.1-0.2,0.2-0.3,0.4-0.4
				c0.2-0.1,0.4-0.1,0.7-0.1H16c0.3,0,0.5,0.1,0.7,0.2c0.2,0.1,0.2,0.3,0.2,0.6c0,0.2-0.1,0.4-0.2,0.6C16.6,26.6,16.4,26.7,16,26.7z
				"/>
			<path class="st0" d="M23.3,34v-7.8c0-0.4,0.1-0.7,0.3-0.9c0.2-0.2,0.4-0.3,0.7-0.3c0.3,0,0.5,0.1,0.7,0.3
				c0.2,0.2,0.3,0.5,0.3,0.9V34c0,0.4-0.1,0.7-0.3,0.9c-0.2,0.2-0.4,0.3-0.7,0.3c-0.3,0-0.5-0.1-0.7-0.3
				C23.4,34.7,23.3,34.4,23.3,34z"/>
			<path class="st0" d="M29.7,26.2l3.8,5.8v-5.9c0-0.4,0.1-0.7,0.2-0.9c0.2-0.2,0.4-0.3,0.6-0.3c0.3,0,0.5,0.1,0.7,0.3
				c0.2,0.2,0.2,0.5,0.2,0.9v7.8c0,0.9-0.4,1.3-1.1,1.3c-0.2,0-0.3,0-0.5-0.1c-0.1-0.1-0.3-0.1-0.4-0.2c-0.1-0.1-0.2-0.2-0.3-0.4
				c-0.1-0.2-0.2-0.3-0.3-0.5L29,28.3v5.8c0,0.4-0.1,0.7-0.3,0.9c-0.2,0.2-0.4,0.3-0.7,0.3c-0.3,0-0.5-0.1-0.7-0.3
				c-0.2-0.2-0.3-0.5-0.3-0.9v-7.6c0-0.3,0-0.6,0.1-0.8c0.1-0.2,0.2-0.4,0.4-0.5c0.2-0.1,0.4-0.2,0.6-0.2c0.2,0,0.3,0,0.5,0.1
				c0.1,0.1,0.2,0.1,0.3,0.2c0.1,0.1,0.2,0.2,0.3,0.4C29.5,25.8,29.6,26,29.7,26.2z"/>
			<path class="st0" d="M38.4,26.3l2.2,6.6l2.2-6.7c0.1-0.4,0.2-0.6,0.3-0.7c0.1-0.1,0.2-0.3,0.3-0.4c0.1-0.1,0.3-0.2,0.5-0.2
				c0.2,0,0.3,0,0.5,0.1c0.1,0.1,0.3,0.2,0.3,0.3c0.1,0.1,0.1,0.3,0.1,0.4c0,0.1,0,0.2,0,0.3c0,0.1-0.1,0.2-0.1,0.3
				c0,0.1-0.1,0.2-0.1,0.3l-2.3,6.5c-0.1,0.2-0.2,0.5-0.3,0.7c-0.1,0.2-0.2,0.4-0.3,0.6c-0.1,0.2-0.3,0.3-0.4,0.4
				c-0.2,0.1-0.4,0.2-0.7,0.2c-0.3,0-0.5-0.1-0.7-0.2c-0.2-0.1-0.3-0.2-0.4-0.4c-0.1-0.2-0.2-0.4-0.3-0.6c-0.1-0.2-0.2-0.5-0.3-0.7
				l-2.3-6.4c0-0.1-0.1-0.2-0.1-0.3c0-0.1-0.1-0.2-0.1-0.4c0-0.1,0-0.2,0-0.3c0-0.2,0.1-0.4,0.3-0.6c0.2-0.2,0.4-0.3,0.7-0.3
				c0.3,0,0.6,0.1,0.7,0.3C38.1,25.5,38.2,25.8,38.4,26.3z"/>
			<path class="st0" d="M52.2,26.7h-4.4v2.4h4.1c0.3,0,0.5,0.1,0.7,0.2c0.1,0.1,0.2,0.3,0.2,0.5c0,0.2-0.1,0.4-0.2,0.6
				c-0.1,0.1-0.4,0.2-0.7,0.2h-4.1v2.8h4.6c0.3,0,0.5,0.1,0.7,0.2c0.2,0.1,0.2,0.3,0.2,0.6c0,0.2-0.1,0.4-0.2,0.6
				C52.9,35,52.6,35,52.3,35H47c-0.4,0-0.7-0.1-0.9-0.3s-0.3-0.5-0.3-0.9v-7.4c0-0.3,0-0.5,0.1-0.7c0.1-0.2,0.2-0.3,0.4-0.4
				c0.2-0.1,0.4-0.1,0.7-0.1h5.2c0.3,0,0.5,0.1,0.7,0.2c0.2,0.1,0.2,0.3,0.2,0.6c0,0.2-0.1,0.4-0.2,0.6
				C52.7,26.6,52.5,26.7,52.2,26.7z"/>
			<path class="st0" d="M61.6,32.1c0,0.6-0.2,1.1-0.5,1.6c-0.3,0.5-0.7,0.9-1.3,1.1c-0.6,0.3-1.3,0.4-2.1,0.4c-1,0-1.7-0.2-2.4-0.6
				c-0.4-0.3-0.8-0.6-1.1-1.1c-0.3-0.4-0.4-0.9-0.4-1.3c0-0.2,0.1-0.5,0.2-0.6c0.2-0.2,0.4-0.3,0.6-0.3c0.2,0,0.4,0.1,0.5,0.2
				c0.1,0.1,0.3,0.3,0.4,0.6c0.1,0.3,0.3,0.6,0.4,0.8c0.1,0.2,0.3,0.4,0.6,0.5c0.3,0.1,0.6,0.2,1,0.2c0.6,0,1.1-0.1,1.4-0.4
				c0.4-0.3,0.5-0.6,0.5-1c0-0.3-0.1-0.6-0.3-0.8c-0.2-0.2-0.4-0.4-0.8-0.5c-0.3-0.1-0.7-0.2-1.2-0.3c-0.7-0.2-1.3-0.4-1.7-0.6
				c-0.5-0.2-0.8-0.5-1.1-0.9c-0.3-0.4-0.4-0.9-0.4-1.4c0-0.5,0.1-1,0.4-1.5c0.3-0.4,0.7-0.7,1.3-1c0.5-0.2,1.2-0.3,1.9-0.3
				c0.6,0,1.1,0.1,1.5,0.2c0.4,0.2,0.8,0.4,1.1,0.6s0.5,0.5,0.6,0.8c0.1,0.3,0.2,0.5,0.2,0.8c0,0.2-0.1,0.5-0.2,0.6
				c-0.2,0.2-0.4,0.3-0.6,0.3c-0.2,0-0.4-0.1-0.5-0.2c-0.1-0.1-0.2-0.3-0.4-0.6c-0.2-0.4-0.4-0.7-0.6-0.9c-0.2-0.2-0.6-0.3-1.2-0.3
				c-0.5,0-0.9,0.1-1.2,0.3c-0.3,0.2-0.5,0.5-0.5,0.8c0,0.2,0.1,0.4,0.2,0.5c0.1,0.1,0.3,0.3,0.4,0.4c0.2,0.1,0.4,0.2,0.6,0.2
				c0.2,0.1,0.5,0.1,0.9,0.3c0.5,0.1,1,0.3,1.5,0.4c0.4,0.2,0.8,0.3,1.1,0.6c0.3,0.2,0.6,0.5,0.7,0.9C61.5,31.1,61.6,31.6,61.6,32.1
				z"/>
			<path class="st0" d="M69.1,26.8H67V34c0,0.4-0.1,0.7-0.3,0.9c-0.2,0.2-0.4,0.3-0.7,0.3c-0.3,0-0.5-0.1-0.7-0.3
				c-0.2-0.2-0.3-0.5-0.3-0.9v-7.2h-2.1c-0.3,0-0.6-0.1-0.7-0.2c-0.2-0.2-0.2-0.3-0.2-0.6c0-0.3,0.1-0.5,0.3-0.6
				c0.2-0.1,0.4-0.2,0.7-0.2h6.2c0.3,0,0.6,0.1,0.8,0.2c0.2,0.2,0.2,0.4,0.2,0.6c0,0.2-0.1,0.4-0.3,0.6
				C69.7,26.7,69.5,26.8,69.1,26.8z"/>
			<path class="st0" d="M71.1,34v-7.8c0-0.4,0.1-0.7,0.3-0.9c0.2-0.2,0.4-0.3,0.7-0.3c0.3,0,0.5,0.1,0.7,0.3
				c0.2,0.2,0.3,0.5,0.3,0.9V34c0,0.4-0.1,0.7-0.3,0.9c-0.2,0.2-0.4,0.3-0.7,0.3c-0.3,0-0.5-0.1-0.7-0.3
				C71.2,34.7,71.1,34.4,71.1,34z"/>
			<path class="st0" d="M83.7,31v1.9c0,0.3,0,0.5-0.1,0.6c0,0.2-0.1,0.3-0.3,0.4c-0.1,0.1-0.3,0.2-0.5,0.4c-0.6,0.3-1.1,0.6-1.7,0.7
				c-0.5,0.1-1.1,0.2-1.8,0.2c-0.7,0-1.4-0.1-2-0.4c-0.6-0.2-1.1-0.6-1.6-1c-0.4-0.4-0.8-1-1-1.6c-0.2-0.6-0.3-1.3-0.3-2.1
				c0-0.8,0.1-1.5,0.3-2.1c0.2-0.6,0.6-1.2,1-1.6c0.4-0.4,1-0.8,1.6-1c0.6-0.2,1.3-0.4,2.1-0.4c0.7,0,1.2,0.1,1.7,0.3
				c0.5,0.2,0.9,0.4,1.2,0.7c0.3,0.3,0.5,0.6,0.7,0.9c0.2,0.3,0.2,0.6,0.2,0.8c0,0.3-0.1,0.5-0.3,0.6c-0.2,0.2-0.4,0.3-0.7,0.3
				c-0.1,0-0.3,0-0.4-0.1c-0.1-0.1-0.2-0.2-0.3-0.3c-0.2-0.4-0.4-0.7-0.6-0.9c-0.2-0.2-0.4-0.4-0.7-0.5c-0.3-0.1-0.6-0.2-1.1-0.2
				c-0.5,0-0.9,0.1-1.2,0.2c-0.4,0.2-0.7,0.4-0.9,0.7c-0.3,0.3-0.4,0.7-0.6,1.1c-0.1,0.4-0.2,0.9-0.2,1.5c0,1.2,0.3,2.1,0.8,2.7
				c0.5,0.6,1.2,0.9,2.2,0.9c0.5,0,0.9-0.1,1.3-0.2c0.4-0.1,0.8-0.3,1.2-0.5v-1.6h-1.5c-0.4,0-0.6-0.1-0.8-0.2
				c-0.2-0.1-0.3-0.3-0.3-0.6c0-0.2,0.1-0.4,0.2-0.5c0.2-0.1,0.4-0.2,0.6-0.2h2.2c0.3,0,0.5,0,0.7,0.1s0.3,0.2,0.5,0.3
				C83.6,30.4,83.7,30.7,83.7,31z"/>
			<path class="st0" d="M91.4,33.9l-0.5-1.2H87l-0.5,1.3c-0.2,0.5-0.3,0.8-0.5,1c-0.1,0.2-0.3,0.3-0.6,0.3c-0.2,0-0.5-0.1-0.7-0.3
				c-0.2-0.2-0.3-0.4-0.3-0.6c0-0.1,0-0.3,0.1-0.4c0-0.1,0.1-0.3,0.2-0.6l2.5-6.4c0.1-0.2,0.2-0.4,0.3-0.7c0.1-0.3,0.2-0.5,0.3-0.6
				c0.1-0.2,0.3-0.3,0.4-0.4C88.5,25,88.7,25,89,25c0.3,0,0.5,0.1,0.7,0.2c0.2,0.1,0.3,0.2,0.4,0.4c0.1,0.2,0.2,0.3,0.3,0.5
				c0.1,0.2,0.2,0.4,0.3,0.8l2.5,6.4c0.2,0.5,0.3,0.8,0.3,1.1c0,0.2-0.1,0.4-0.3,0.6s-0.4,0.3-0.7,0.3c-0.2,0-0.3,0-0.4-0.1
				c-0.1-0.1-0.2-0.1-0.3-0.2c-0.1-0.1-0.2-0.2-0.2-0.4C91.5,34.2,91.5,34.1,91.4,33.9z M87.5,31.2h2.9L89,27.1L87.5,31.2z"/>
			<path class="st0" d="M102.5,31.9c0,0.3-0.1,0.7-0.2,1c-0.2,0.4-0.4,0.7-0.7,1.1c-0.3,0.4-0.7,0.6-1.2,0.9
				c-0.5,0.2-1.1,0.3-1.8,0.3c-0.5,0-1,0-1.4-0.1c-0.4-0.1-0.8-0.3-1.1-0.5c-0.3-0.2-0.7-0.5-0.9-0.8c-0.3-0.3-0.5-0.7-0.7-1
				c-0.2-0.4-0.3-0.8-0.4-1.2c-0.1-0.4-0.1-0.9-0.1-1.4c0-0.8,0.1-1.5,0.3-2.1c0.2-0.6,0.6-1.2,1-1.6c0.4-0.4,0.9-0.8,1.5-1
				c0.6-0.2,1.2-0.4,1.8-0.4c0.8,0,1.5,0.2,2.1,0.5c0.6,0.3,1.1,0.7,1.4,1.2c0.3,0.5,0.5,0.9,0.5,1.3c0,0.2-0.1,0.4-0.2,0.6
				c-0.2,0.2-0.3,0.3-0.6,0.3c-0.3,0-0.4-0.1-0.6-0.2c-0.1-0.1-0.3-0.3-0.4-0.6c-0.3-0.5-0.6-0.9-0.9-1.1c-0.3-0.2-0.8-0.4-1.3-0.4
				c-0.8,0-1.4,0.3-1.9,0.9c-0.5,0.6-0.7,1.5-0.7,2.7c0,0.8,0.1,1.4,0.3,1.9c0.2,0.5,0.5,0.9,0.9,1.1c0.4,0.3,0.8,0.4,1.4,0.4
				c0.6,0,1-0.1,1.4-0.4c0.4-0.3,0.7-0.7,0.9-1.3c0.1-0.3,0.2-0.5,0.3-0.6c0.1-0.2,0.3-0.2,0.6-0.2c0.2,0,0.4,0.1,0.6,0.2
				C102.4,31.4,102.5,31.7,102.5,31.9z"/>
			<path class="st0" d="M104,34v-7.8c0-0.4,0.1-0.7,0.3-0.9c0.2-0.2,0.4-0.3,0.7-0.3c0.3,0,0.5,0.1,0.7,0.3c0.2,0.2,0.3,0.5,0.3,0.9
				V34c0,0.4-0.1,0.7-0.3,0.9c-0.2,0.2-0.4,0.3-0.7,0.3c-0.3,0-0.5-0.1-0.7-0.3C104,34.7,104,34.4,104,34z"/>
			<path class="st0" d="M112,25c1,0,1.9,0.2,2.6,0.6c0.7,0.4,1.3,1,1.6,1.8c0.4,0.8,0.6,1.7,0.6,2.7c0,0.8-0.1,1.5-0.3,2.1
				c-0.2,0.6-0.5,1.2-0.9,1.6c-0.4,0.5-0.9,0.8-1.5,1.1c-0.6,0.2-1.3,0.4-2,0.4c-0.8,0-1.4-0.1-2-0.4c-0.6-0.2-1.1-0.6-1.5-1.1
				c-0.4-0.5-0.7-1-0.9-1.6c-0.2-0.6-0.3-1.3-0.3-2.1c0-0.8,0.1-1.5,0.3-2.1c0.2-0.6,0.5-1.2,0.9-1.6c0.4-0.4,0.9-0.8,1.5-1
				C110.6,25.1,111.3,25,112,25z M114.8,30.1c0-0.7-0.1-1.4-0.3-1.9c-0.2-0.5-0.6-0.9-1-1.2c-0.4-0.3-0.9-0.4-1.5-0.4
				c-0.4,0-0.8,0.1-1.1,0.2c-0.3,0.2-0.6,0.4-0.9,0.7c-0.2,0.3-0.4,0.7-0.6,1.1c-0.1,0.4-0.2,1-0.2,1.5c0,0.6,0.1,1.1,0.2,1.5
				c0.1,0.5,0.3,0.8,0.6,1.1c0.3,0.3,0.5,0.5,0.9,0.7c0.3,0.1,0.7,0.2,1.1,0.2c0.5,0,1-0.1,1.4-0.4c0.4-0.3,0.8-0.7,1-1.2
				C114.7,31.5,114.8,30.8,114.8,30.1z M112.8,22.6h0.9c0.2,0,0.3,0,0.3,0.1c0,0-0.1,0.2-0.4,0.4c-0.2,0.3-0.5,0.5-0.7,0.7
				c-0.3,0.2-0.4,0.4-0.5,0.4c-0.3,0.1-0.5,0.2-0.8,0.2c-0.2,0-0.3-0.1-0.3-0.2c0-0.1,0.1-0.2,0.2-0.4l0.3-0.6
				c0.2-0.3,0.3-0.5,0.4-0.6C112.3,22.6,112.5,22.6,112.8,22.6z"/>
			<path class="st0" d="M120.7,26.2l3.8,5.8v-5.9c0-0.4,0.1-0.7,0.2-0.9c0.2-0.2,0.4-0.3,0.6-0.3c0.3,0,0.5,0.1,0.7,0.3
				c0.2,0.2,0.2,0.5,0.2,0.9v7.8c0,0.9-0.4,1.3-1.1,1.3c-0.2,0-0.3,0-0.5-0.1c-0.1-0.1-0.3-0.1-0.4-0.2c-0.1-0.1-0.2-0.2-0.3-0.4
				c-0.1-0.2-0.2-0.3-0.3-0.5l-3.7-5.8v5.8c0,0.4-0.1,0.7-0.3,0.9c-0.2,0.2-0.4,0.3-0.7,0.3c-0.3,0-0.5-0.1-0.7-0.3
				c-0.2-0.2-0.3-0.5-0.3-0.9v-7.6c0-0.3,0-0.6,0.1-0.8c0.1-0.2,0.2-0.4,0.4-0.5c0.2-0.1,0.4-0.2,0.6-0.2c0.2,0,0.3,0,0.5,0.1
				s0.2,0.1,0.3,0.2c0.1,0.1,0.2,0.2,0.3,0.4C120.5,25.8,120.6,26,120.7,26.2z"/>
			<path class="st0" d="M139.3,26.7h-4.4v2.4h4.1c0.3,0,0.5,0.1,0.7,0.2c0.1,0.1,0.2,0.3,0.2,0.5c0,0.2-0.1,0.4-0.2,0.6
				c-0.1,0.1-0.4,0.2-0.7,0.2h-4.1v2.8h4.6c0.3,0,0.5,0.1,0.7,0.2c0.2,0.1,0.2,0.3,0.2,0.6c0,0.2-0.1,0.4-0.2,0.6
				c-0.2,0.1-0.4,0.2-0.7,0.2h-5.3c-0.4,0-0.7-0.1-0.9-0.3c-0.2-0.2-0.3-0.5-0.3-0.9v-7.4c0-0.3,0-0.5,0.1-0.7
				c0.1-0.2,0.2-0.3,0.4-0.4c0.2-0.1,0.4-0.1,0.7-0.1h5.2c0.3,0,0.5,0.1,0.7,0.2c0.2,0.1,0.2,0.3,0.2,0.6c0,0.2-0.1,0.4-0.2,0.6
				C139.9,26.6,139.6,26.7,139.3,26.7z"/>
			<path class="st0" d="M144.1,26.2l3.8,5.8v-5.9c0-0.4,0.1-0.7,0.2-0.9c0.2-0.2,0.4-0.3,0.6-0.3c0.3,0,0.5,0.1,0.7,0.3
				c0.2,0.2,0.2,0.5,0.2,0.9v7.8c0,0.9-0.4,1.3-1.1,1.3c-0.2,0-0.3,0-0.5-0.1s-0.3-0.1-0.4-0.2c-0.1-0.1-0.2-0.2-0.3-0.4
				c-0.1-0.2-0.2-0.3-0.3-0.5l-3.7-5.8v5.8c0,0.4-0.1,0.7-0.3,0.9c-0.2,0.2-0.4,0.3-0.7,0.3c-0.3,0-0.5-0.1-0.7-0.3
				c-0.2-0.2-0.3-0.5-0.3-0.9v-7.6c0-0.3,0-0.6,0.1-0.8c0.1-0.2,0.2-0.4,0.4-0.5c0.2-0.1,0.4-0.2,0.6-0.2c0.2,0,0.3,0,0.5,0.1
				c0.1,0.1,0.2,0.1,0.3,0.2s0.2,0.2,0.3,0.4C143.9,25.8,144,26,144.1,26.2z"/>
			<path class="st0" d="M163.7,32.1c0,0.6-0.2,1.1-0.5,1.6c-0.3,0.5-0.7,0.9-1.3,1.1s-1.3,0.4-2.1,0.4c-1,0-1.7-0.2-2.4-0.6
				c-0.4-0.3-0.8-0.6-1.1-1.1c-0.3-0.4-0.4-0.9-0.4-1.3c0-0.2,0.1-0.5,0.2-0.6c0.2-0.2,0.4-0.3,0.6-0.3c0.2,0,0.4,0.1,0.5,0.2
				c0.1,0.1,0.3,0.3,0.4,0.6c0.1,0.3,0.3,0.6,0.4,0.8c0.1,0.2,0.3,0.4,0.6,0.5c0.3,0.1,0.6,0.2,1,0.2c0.6,0,1.1-0.1,1.4-0.4
				c0.4-0.3,0.5-0.6,0.5-1c0-0.3-0.1-0.6-0.3-0.8c-0.2-0.2-0.4-0.4-0.8-0.5c-0.3-0.1-0.7-0.2-1.2-0.3c-0.7-0.2-1.3-0.4-1.7-0.6
				c-0.5-0.2-0.8-0.5-1.1-0.9c-0.3-0.4-0.4-0.9-0.4-1.4c0-0.5,0.1-1,0.4-1.5c0.3-0.4,0.7-0.7,1.3-1c0.5-0.2,1.2-0.3,1.9-0.3
				c0.6,0,1.1,0.1,1.5,0.2c0.4,0.2,0.8,0.4,1.1,0.6c0.3,0.2,0.5,0.5,0.6,0.8c0.1,0.3,0.2,0.5,0.2,0.8c0,0.2-0.1,0.5-0.2,0.6
				c-0.2,0.2-0.4,0.3-0.6,0.3c-0.2,0-0.4-0.1-0.5-0.2c-0.1-0.1-0.2-0.3-0.4-0.6c-0.2-0.4-0.4-0.7-0.6-0.9c-0.2-0.2-0.6-0.3-1.2-0.3
				c-0.5,0-0.9,0.1-1.2,0.3c-0.3,0.2-0.5,0.5-0.5,0.8c0,0.2,0.1,0.4,0.2,0.5c0.1,0.1,0.3,0.3,0.4,0.4c0.2,0.1,0.4,0.2,0.6,0.2
				c0.2,0.1,0.5,0.1,0.9,0.3c0.5,0.1,1,0.3,1.5,0.4c0.4,0.2,0.8,0.3,1.1,0.6c0.3,0.2,0.6,0.5,0.7,0.9
				C163.6,31.1,163.7,31.6,163.7,32.1z"/>
			<path class="st0" d="M171.2,33.9l-0.5-1.2h-3.9l-0.5,1.3c-0.2,0.5-0.3,0.8-0.5,1c-0.1,0.2-0.3,0.3-0.6,0.3
				c-0.2,0-0.5-0.1-0.7-0.3c-0.2-0.2-0.3-0.4-0.3-0.6c0-0.1,0-0.3,0.1-0.4c0-0.1,0.1-0.3,0.2-0.6l2.5-6.4c0.1-0.2,0.2-0.4,0.3-0.7
				c0.1-0.3,0.2-0.5,0.3-0.6s0.3-0.3,0.4-0.4c0.2-0.1,0.4-0.2,0.7-0.2c0.3,0,0.5,0.1,0.7,0.2c0.2,0.1,0.3,0.2,0.4,0.4
				c0.1,0.2,0.2,0.3,0.3,0.5c0.1,0.2,0.2,0.4,0.3,0.8l2.5,6.4c0.2,0.5,0.3,0.8,0.3,1.1c0,0.2-0.1,0.4-0.3,0.6
				c-0.2,0.2-0.4,0.3-0.7,0.3c-0.2,0-0.3,0-0.4-0.1c-0.1-0.1-0.2-0.1-0.3-0.2c-0.1-0.1-0.2-0.2-0.2-0.4
				C171.3,34.2,171.2,34.1,171.2,33.9z M167.3,31.2h2.9l-1.5-4.1L167.3,31.2z"/>
			<path class="st0" d="M176.2,26.2v7.2h4c0.3,0,0.6,0.1,0.7,0.2c0.2,0.2,0.3,0.4,0.3,0.6c0,0.2-0.1,0.4-0.3,0.6
				c-0.2,0.2-0.4,0.2-0.7,0.2h-4.7c-0.4,0-0.7-0.1-0.9-0.3c-0.2-0.2-0.3-0.5-0.3-0.9v-7.6c0-0.4,0.1-0.7,0.3-0.9
				c0.2-0.2,0.4-0.3,0.7-0.3c0.3,0,0.5,0.1,0.7,0.3C176.1,25.5,176.2,25.8,176.2,26.2z"/>
			<path class="st0" d="M181.8,30.9v-4.8c0-0.4,0.1-0.7,0.3-0.9c0.2-0.2,0.4-0.3,0.7-0.3c0.3,0,0.5,0.1,0.7,0.3
				c0.2,0.2,0.3,0.5,0.3,0.9V31c0,0.6,0.1,1,0.2,1.4c0.1,0.4,0.3,0.7,0.6,0.9s0.7,0.3,1.3,0.3c0.8,0,1.3-0.2,1.6-0.6
				c0.3-0.4,0.5-1,0.5-1.9v-4.9c0-0.4,0.1-0.7,0.3-0.9c0.2-0.2,0.4-0.3,0.7-0.3c0.3,0,0.5,0.1,0.7,0.3c0.2,0.2,0.3,0.5,0.3,0.9v4.8
				c0,0.8-0.1,1.4-0.2,1.9c-0.1,0.5-0.4,1-0.8,1.4c-0.4,0.3-0.8,0.6-1.2,0.7c-0.5,0.2-1,0.2-1.6,0.2c-0.7,0-1.4-0.1-1.9-0.2
				c-0.5-0.2-1-0.4-1.3-0.8c-0.3-0.3-0.6-0.8-0.7-1.3C181.9,32.3,181.8,31.7,181.8,30.9z"/>
			<path class="st0" d="M192.9,25.1h2.6c0.7,0,1.2,0.1,1.7,0.2c0.5,0.1,0.9,0.4,1.3,0.7c1,0.9,1.5,2.2,1.5,4c0,0.6-0.1,1.1-0.2,1.6
				c-0.1,0.5-0.3,0.9-0.5,1.3c-0.2,0.4-0.5,0.7-0.8,1.1c-0.3,0.2-0.5,0.4-0.9,0.6c-0.3,0.1-0.6,0.2-1,0.3c-0.4,0.1-0.8,0.1-1.2,0.1
				H193c-0.4,0-0.6-0.1-0.8-0.2c-0.2-0.1-0.3-0.3-0.4-0.5c-0.1-0.2-0.1-0.5-0.1-0.8v-7.3c0-0.4,0.1-0.7,0.3-0.9
				C192.2,25.2,192.5,25.1,192.9,25.1z M193.7,26.7v6.7h1.5c0.3,0,0.6,0,0.8,0c0.2,0,0.4-0.1,0.6-0.1c0.2-0.1,0.4-0.2,0.5-0.3
				c0.7-0.6,1-1.5,1-2.9c0-1-0.1-1.7-0.4-2.2c-0.3-0.5-0.6-0.8-1.1-0.9c-0.4-0.1-0.9-0.2-1.5-0.2H193.7z"/>
		</g>
	</g>
	<g>
		<g>
			<rect class="st0" width="200" height="2.3"/>
		</g>
		<g>
			<rect y="39.7" class="st0" width="200" height="2.3"/>
		</g>
	</g>
</g>
</svg>
